<?xml version="1.0" standalone="no"?>
<svg width="1700px" height="1500px" version="1.1" xmlns="http://www.w3.org/2000/svg">
  <path fill="white" transform="scale(1, -1) translate(-50, -1600)" unicode="&#xf296;" d="M1339 1187q95 0 177.5 -51.5t129.5 -136.5t47 -181.5t-47 -181.5t-129.5 -136.5t-177.5 -51.5h-477l-179 -355l-179 355h-51q-95 0 -177.5 51.5t-129.5 136.5t-47 181.5t47 181.5t129.5 136.5t177.5 51.5h886zM1339 617q75 0 131.5 60t56.5 140.5t-56.5 140.5t-131.5 60 h-886q-75 0 -131.5 -60t-56.5 -140.5t56.5 -140.5t131.5 -60h149l81 -214l80 214h576z" />
</svg>
