<?xml version="1.0" encoding="UTF-8" standalone="no"?>
<svg width="273px" height="205px" viewBox="0 0 273 205" version="1.1" xmlns="http://www.w3.org/2000/svg" xmlns:xlink="http://www.w3.org/1999/xlink">
    <!-- Generator: Sketch 40.3 (33839) - http://www.bohemiancoding.com/sketch -->
    <title>Group</title>
    <desc>Created with Sketch.</desc>
    <defs>
        <radialGradient cx="50.0053971%" cy="49.9968548%" fx="50.0053971%" fy="49.9968548%" r="50%" id="radialGradient-1">
            <stop stop-color="#FAFA00" offset="0%"></stop>
            <stop stop-color="#7C2024" offset="100%"></stop>
        </radialGradient>
        <linearGradient x1="96.3618662%" y1="96.4428802%" x2="96.3618662%" y2="4.99964984%" id="linearGradient-2">
            <stop stop-color="#2D1650" offset="0%"></stop>
            <stop stop-color="#D5D5FF" offset="61.397%"></stop>
            <stop stop-color="#2D1650" offset="100%"></stop>
        </linearGradient>
        <linearGradient x1="-0.033521894%" y1="1880.61479%" x2="99.7024932%" y2="1880.61479%" id="linearGradient-3">
            <stop stop-color="#A0892C" offset="0%"></stop>
            <stop stop-color="#FFEEAA" offset="22.394%"></stop>
            <stop stop-color="#A0892C" offset="54.257%"></stop>
            <stop stop-color="#FFEEAA" offset="78.185%"></stop>
            <stop stop-color="#A0892C" offset="100%"></stop>
        </linearGradient>
        <linearGradient x1="-0.033521894%" y1="58.093582%" x2="99.7024932%" y2="58.093582%" id="linearGradient-4">
            <stop stop-color="#A0892C" offset="0%"></stop>
            <stop stop-color="#FFEEAA" offset="22.394%"></stop>
            <stop stop-color="#A0892C" offset="54.257%"></stop>
            <stop stop-color="#FFEEAA" offset="78.185%"></stop>
            <stop stop-color="#A0892C" offset="100%"></stop>
        </linearGradient>
        <linearGradient x1="-0.0335217414%" y1="-293.157935%" x2="99.7024933%" y2="-293.157935%" id="linearGradient-5">
            <stop stop-color="#A0892C" offset="0%"></stop>
            <stop stop-color="#FFEEAA" offset="22.394%"></stop>
            <stop stop-color="#A0892C" offset="54.257%"></stop>
            <stop stop-color="#FFEEAA" offset="78.185%"></stop>
            <stop stop-color="#A0892C" offset="100%"></stop>
        </linearGradient>
        <linearGradient x1="8.68815493%" y1="51.3015873%" x2="92.4359995%" y2="51.3015873%" id="linearGradient-6">
            <stop stop-color="#2B1100" offset="0%"></stop>
            <stop stop-color="#C8B7B7" offset="50%"></stop>
            <stop stop-color="#2B1100" offset="100%"></stop>
        </linearGradient>
        <linearGradient x1="0.312737694%" y1="36.0834318%" x2="100.454346%" y2="36.0834318%" id="linearGradient-7">
            <stop stop-color="#A0892C" offset="0%"></stop>
            <stop stop-color="#FFEEAA" offset="50.826%"></stop>
            <stop stop-color="#A0892C" offset="100%"></stop>
        </linearGradient>
        <linearGradient x1="-7.57530707%" y1="42.0214356%" x2="108.313331%" y2="42.0214356%" id="linearGradient-8">
            <stop stop-color="#A0892C" offset="0%"></stop>
            <stop stop-color="#FFEEAA" offset="50.826%"></stop>
            <stop stop-color="#A0892C" offset="100%"></stop>
        </linearGradient>
        <linearGradient x1="24.7984853%" y1="59.2124362%" x2="100.456542%" y2="59.2124362%" id="linearGradient-9">
            <stop stop-color="#2B1100" offset="0%"></stop>
            <stop stop-color="#C8B7B7" offset="50%"></stop>
            <stop stop-color="#2B1100" offset="100%"></stop>
        </linearGradient>
        <linearGradient x1="0.30742004%" y1="36.1243744%" x2="100.449718%" y2="36.1243744%" id="linearGradient-10">
            <stop stop-color="#A0892C" offset="0%"></stop>
            <stop stop-color="#FFEEAA" offset="50.826%"></stop>
            <stop stop-color="#A0892C" offset="100%"></stop>
        </linearGradient>
        <linearGradient x1="53.9969991%" y1="-9.24247921%" x2="53.9969991%" y2="85.0088079%" id="linearGradient-11">
            <stop stop-color="#6C5D53" offset="0%"></stop>
            <stop stop-color="#6C5D53" stop-opacity="0" offset="100%"></stop>
        </linearGradient>
        <linearGradient x1="48.8876105%" y1="-142.246001%" x2="48.8876105%" y2="129.423257%" id="linearGradient-12">
            <stop stop-color="#A0892C" offset="0%"></stop>
            <stop stop-color="#FFEEAA" offset="50%"></stop>
            <stop stop-color="#A0892C" offset="100%"></stop>
        </linearGradient>
        <linearGradient x1="95.1555366%" y1="48.5615578%" x2="4.20828977%" y2="48.5615578%" id="linearGradient-13">
            <stop stop-color="#A0892C" offset="0%"></stop>
            <stop stop-color="#FFEEAA" offset="50.826%"></stop>
            <stop stop-color="#A0892C" offset="100%"></stop>
        </linearGradient>
        <linearGradient x1="105.882353%" y1="40.8235294%" x2="-8.70588235%" y2="40.8235294%" id="linearGradient-14">
            <stop stop-color="#FFEEAA" offset="0%"></stop>
            <stop stop-color="#806600" offset="100%"></stop>
        </linearGradient>
    </defs>
    <g id="Symbols" stroke="none" stroke-width="1" fill="none" fill-rule="evenodd">
        <g id="building" transform="translate(0.830986, 0.000000)">
            <g id="Group">
                <g id="commercial">
                    <g id="g15900" transform="translate(10.000000, 21.000000)">
                        <g id="g15867" transform="translate(0.000002, 0.000000)">
                            <g id="g14344" transform="translate(4.323037, 10.880978)">
                                <polygon id="rect14237" fill="url(#radialGradient-1)" points="1.65810537 17.8459506 241.032472 17.8459506 241.032472 144.652088 1.65810537 144.652088"></polygon>
                                <path d="M0.198505573,0.597267821 L0.198505573,23.5220544 L0.198505573,28.7238452 L0.198505573,31.0646202 L242.468718,31.0646202 L242.468718,28.7238452 L242.468718,23.5220544 L242.468718,0.597267821 L0.198505573,0.597267821 Z M0.198505573,33.2101504 L0.198505573,40.785154 L242.468718,40.785154 L242.468718,33.2101504 L0.198505573,33.2101504 Z M0.198505573,42.9308901 L0.198505573,50.473353 L242.468718,50.473353 L242.468718,42.9308901 L0.198505573,42.9308901 Z M0.198505573,52.6190891 L0.198505573,60.1615519 L242.468718,60.1615519 L242.468718,52.6190891 L0.198505573,52.6190891 Z M0.198505573,62.307288 L0.198505573,69.817313 L242.468718,69.817313 L242.468718,62.307288 L0.198505573,62.307288 Z M0.198505573,71.995487 L0.198505573,79.5379498 L242.468718,79.5379498 L242.468718,71.995487 L0.198505573,71.995487 Z M0.198505573,81.6836859 L0.198505573,89.2261487 L242.468718,89.2261487 L242.468718,81.6836859 L0.198505573,81.6836859 Z M0.198505573,91.4044257 L0.198505573,98.9469915 L242.468718,98.9469915 L242.468718,91.4044257 L0.198505573,91.4044257 Z M0.198505573,101.092625 L0.198505573,108.635087 L242.468718,108.635087 L242.468718,101.092625 L0.198505573,101.092625 Z M0.198505573,110.780824 L0.198505573,114.617137 L0.198505573,118.323389 L0.198505573,120.469125 L0.198505573,120.599175 L0.198505573,128.141638 L0.198505573,130.287374 L0.198505573,137.862378 L0.198505573,147.550577 L242.468718,147.550577 L242.468718,137.862378 L242.468718,130.287374 L242.468718,128.141638 L242.468718,120.599175 L242.468718,118.453439 L242.468718,118.323389 L242.468718,114.617137 L242.468718,110.780824 L0.198505573,110.780824 Z" id="path14273" fill="url(#linearGradient-2)"></path>
                            </g>
                            <path d="M9.08218549,125.257174 L9.08218549,156.955354 L15.9206654,156.955354 L15.9206654,125.257174 L9.08218549,125.257174 L9.08218549,125.257174 Z M17.1371373,125.257174 L17.1371373,156.955354 L24.0413669,156.955354 L24.0413669,125.257174 L17.1371373,125.257174 L17.1371373,125.257174 Z M25.2249639,125.257174 L25.2249639,156.955354 L32.1291935,156.955354 L32.1291935,125.257174 L25.2249639,125.257174 L25.2249639,125.257174 Z M33.3127905,125.257174 L33.3127905,156.955354 L40.1841453,156.955354 L40.1841453,125.257174 L33.3127905,125.257174 L33.3127905,125.257174 Z M41.4006172,125.257174 L41.4006172,156.955354 L48.2719719,156.955354 L48.2719719,125.257174 L41.4006172,125.257174 L41.4006172,125.257174 Z M49.455569,125.257174 L49.455569,156.955354 L56.3597985,156.955354 L56.3597985,125.257174 L49.455569,125.257174 L49.455569,125.257174 Z M57.5762704,125.257174 L57.5762704,156.955354 L64.4476251,156.955354 L64.4476251,125.257174 L57.5762704,125.257174 L57.5762704,125.257174 Z M65.6312222,125.257174 L65.6312222,156.955354 L72.502577,156.955354 L72.502577,125.257174 L65.6312222,125.257174 L65.6312222,125.257174 Z M73.686174,125.257174 L73.686174,156.955354 L80.5904036,156.955354 L80.5904036,125.257174 L73.686174,125.257174 L73.686174,125.257174 Z M81.8068755,125.257174 L81.8068755,156.955354 L88.711105,156.955354 L88.711105,125.257174 L81.8068755,125.257174 L81.8068755,125.257174 Z M89.8947021,125.257174 L89.8947021,156.955354 L96.7660568,156.955354 L96.7660568,125.257174 L89.8947021,125.257174 L89.8947021,125.257174 Z M97.9825287,125.257174 L97.9825287,156.955354 L104.886758,156.955354 L104.886758,125.257174 L97.9825287,125.257174 L97.9825287,125.257174 Z M106.070355,125.257174 L106.070355,156.955354 L112.908835,156.955354 L112.908835,125.257174 L106.070355,125.257174 L106.070355,125.257174 Z M114.092432,125.257174 L114.092432,156.955354 L120.996662,156.955354 L120.996662,125.257174 L114.092432,125.257174 L114.092432,125.257174 Z M122.213134,125.257174 L122.213134,156.955354 L129.117363,156.955354 L129.117363,125.257174 L122.213134,125.257174 L122.213134,125.257174 Z M130.30096,125.257174 L130.30096,156.955354 L137.172315,156.955354 L137.172315,125.257174 L130.30096,125.257174 L130.30096,125.257174 Z M138.388787,125.257174 L138.388787,156.955354 L145.260142,156.955354 L145.260142,125.257174 L138.388787,125.257174 L138.388787,125.257174 Z M146.443739,125.257174 L146.443739,156.955354 L153.347968,156.955354 L153.347968,125.257174 L146.443739,125.257174 L146.443739,125.257174 Z M154.531565,125.257174 L154.531565,156.955354 L161.40292,156.955354 L161.40292,125.257174 L154.531565,125.257174 L154.531565,125.257174 Z M162.619392,125.257174 L162.619392,156.955354 L169.490747,156.955354 L169.490747,125.257174 L162.619392,125.257174 L162.619392,125.257174 Z M170.674344,125.257174 L170.674344,156.955354 L177.578573,156.955354 L177.578573,125.257174 L170.674344,125.257174 L170.674344,125.257174 Z M178.795045,125.257174 L178.795045,156.955354 L185.699275,156.955354 L185.699275,125.257174 L178.795045,125.257174 L178.795045,125.257174 Z M186.882872,125.257174 L186.882872,156.955354 L193.754227,156.955354 L193.754227,125.257174 L186.882872,125.257174 L186.882872,125.257174 Z M194.937824,125.257174 L194.937824,156.955354 L201.842053,156.955354 L201.842053,125.257174 L194.937824,125.257174 L194.937824,125.257174 Z M203.058525,125.257174 L203.058525,156.955354 L209.92988,156.955354 L209.92988,125.257174 L203.058525,125.257174 L203.058525,125.257174 Z M211.113477,125.257174 L211.113477,156.955354 L218.017707,156.955354 L218.017707,125.257174 L211.113477,125.257174 L211.113477,125.257174 Z M219.234178,125.257174 L219.234178,156.955354 L226.138408,156.955354 L226.138408,125.257174 L219.234178,125.257174 L219.234178,125.257174 Z M227.322005,125.257174 L227.322005,156.955354 L234.19336,156.955354 L234.19336,125.257174 L227.322005,125.257174 L227.322005,125.257174 Z M235.376957,125.257174 L235.376957,156.955354 L242.281186,156.955354 L242.281186,125.257174 L235.376957,125.257174 L235.376957,125.257174 Z" id="path15741-0" fill="#FFE680" opacity="0.20192"></path>
                            <g id="g15735" transform="translate(125.361209, 158.236015) scale(1, -1) translate(-125.361209, -158.236015) translate(0.520171, 153.554476)">
                                <path d="M238.070735,8.0759068 C238.070735,8.77237377 187.517178,9.33692612 125.161669,9.33692612 C62.8011698,9.33692612 12.2526035,8.77237377 12.2526035,8.0759068 C12.2526035,7.37948786 62.8061605,6.81488748 125.161669,6.81488748 C187.522169,6.81488748 238.070735,7.37948786 238.070735,8.0759068 L238.070735,8.0759068 Z" id="path15718" fill="#220055"></path>
                                <polygon id="rect15720" fill="url(#linearGradient-3)" points="1.01953514 0.280892335 249.297149 0.280892335 249.297149 8.49137527 1.01953514 8.49137527"></polygon>
                            </g>
                            <g id="g15484" transform="translate(1.040342, 0.000000)">
                                <path d="M8.04184351,26.3622658 L8.04184351,39.3020393 L14.8803234,39.3020393 L14.8803234,26.3622658 L8.04184351,26.3622658 L8.04184351,26.3622658 Z M16.0967953,26.3622658 L16.0967953,39.3020393 L23.0010249,39.3020393 L23.0010249,26.3622658 L16.0967953,26.3622658 L16.0967953,26.3622658 Z M24.1846219,26.3622658 L24.1846219,39.3020393 L31.0888515,39.3020393 L31.0888515,26.3622658 L24.1846219,26.3622658 L24.1846219,26.3622658 Z M32.2724486,26.3622658 L32.2724486,39.3020393 L39.1438033,39.3020393 L39.1438033,26.3622658 L32.2724486,26.3622658 L32.2724486,26.3622658 Z M40.3602752,26.3622658 L40.3602752,39.3020393 L47.2316299,39.3020393 L47.2316299,26.3622658 L40.3602752,26.3622658 L40.3602752,26.3622658 Z M48.415227,26.3622658 L48.415227,39.3020393 L55.3194565,39.3020393 L55.3194565,26.3622658 L48.415227,26.3622658 L48.415227,26.3622658 Z M56.5359284,26.3622658 L56.5359284,39.3020393 L63.4072832,39.3020393 L63.4072832,26.3622658 L56.5359284,26.3622658 L56.5359284,26.3622658 Z M64.5908802,26.3622658 L64.5908802,39.3020393 L71.462235,39.3020393 L71.462235,26.3622658 L64.5908802,26.3622658 L64.5908802,26.3622658 Z M72.6458321,26.3622658 L72.6458321,39.3020393 L79.5500616,39.3020393 L79.5500616,26.3622658 L72.6458321,26.3622658 L72.6458321,26.3622658 Z M80.7665335,26.3622658 L80.7665335,39.3020393 L87.670763,39.3020393 L87.670763,26.3622658 L80.7665335,26.3622658 L80.7665335,26.3622658 Z M88.8543601,26.3622658 L88.8543601,39.3020393 L95.7257148,39.3020393 L95.7257148,26.3622658 L88.8543601,26.3622658 L88.8543601,26.3622658 Z M96.9421867,26.3622658 L96.9421867,39.3020393 L103.846416,39.3020393 L103.846416,26.3622658 L96.9421867,26.3622658 L96.9421867,26.3622658 Z M105.030013,26.3622658 L105.030013,39.3020393 L111.868493,39.3020393 L111.868493,26.3622658 L105.030013,26.3622658 L105.030013,26.3622658 Z M113.05209,26.3622658 L113.05209,39.3020393 L119.95632,39.3020393 L119.95632,26.3622658 L113.05209,26.3622658 L113.05209,26.3622658 Z M121.172792,26.3622658 L121.172792,39.3020393 L128.077021,39.3020393 L128.077021,26.3622658 L121.172792,26.3622658 L121.172792,26.3622658 Z M129.260618,26.3622658 L129.260618,39.3020393 L136.131973,39.3020393 L136.131973,26.3622658 L129.260618,26.3622658 L129.260618,26.3622658 Z M137.348445,26.3622658 L137.348445,39.3020393 L144.2198,39.3020393 L144.2198,26.3622658 L137.348445,26.3622658 L137.348445,26.3622658 Z M145.403397,26.3622658 L145.403397,39.3020393 L152.307626,39.3020393 L152.307626,26.3622658 L145.403397,26.3622658 L145.403397,26.3622658 Z M153.491223,26.3622658 L153.491223,39.3020393 L160.362578,39.3020393 L160.362578,26.3622658 L153.491223,26.3622658 L153.491223,26.3622658 Z M161.57905,26.3622658 L161.57905,39.3020393 L168.450405,39.3020393 L168.450405,26.3622658 L161.57905,26.3622658 L161.57905,26.3622658 Z M169.634002,26.3622658 L169.634002,39.3020393 L176.538231,39.3020393 L176.538231,26.3622658 L169.634002,26.3622658 L169.634002,26.3622658 Z M177.754703,26.3622658 L177.754703,39.3020393 L184.658933,39.3020393 L184.658933,26.3622658 L177.754703,26.3622658 L177.754703,26.3622658 Z M185.84253,26.3622658 L185.84253,39.3020393 L192.713885,39.3020393 L192.713885,26.3622658 L185.84253,26.3622658 L185.84253,26.3622658 Z M193.897482,26.3622658 L193.897482,39.3020393 L200.801711,39.3020393 L200.801711,26.3622658 L193.897482,26.3622658 L193.897482,26.3622658 Z M202.018183,26.3622658 L202.018183,39.3020393 L208.889538,39.3020393 L208.889538,26.3622658 L202.018183,26.3622658 L202.018183,26.3622658 Z M210.073135,26.3622658 L210.073135,39.3020393 L216.977365,39.3020393 L216.977365,26.3622658 L210.073135,26.3622658 L210.073135,26.3622658 Z M218.193836,26.3622658 L218.193836,39.3020393 L225.098066,39.3020393 L225.098066,26.3622658 L218.193836,26.3622658 L218.193836,26.3622658 Z M226.281663,26.3622658 L226.281663,39.3020393 L233.153018,39.3020393 L233.153018,26.3622658 L226.281663,26.3622658 L226.281663,26.3622658 Z M234.336615,26.3622658 L234.336615,39.3020393 L241.240844,39.3020393 L241.240844,26.3622658 L234.336615,26.3622658 L234.336615,26.3622658 Z" id="path15741" fill="#FFE680" opacity="0.20192"></path>
                                <path d="M8.04184351,11.2773071 L8.04184351,23.4368241 L14.8803234,23.4368241 L14.8803234,11.2773071 L8.04184351,11.2773071 L8.04184351,11.2773071 Z M16.0967953,11.2773071 L16.0967953,23.4368241 L23.0010249,23.4368241 L23.0010249,11.2773071 L16.0967953,11.2773071 L16.0967953,11.2773071 Z M24.1846219,11.2773071 L24.1846219,23.4368241 L31.0888515,23.4368241 L31.0888515,11.2773071 L24.1846219,11.2773071 L24.1846219,11.2773071 Z M32.2724486,11.2773071 L32.2724486,23.4368241 L39.1438033,23.4368241 L39.1438033,11.2773071 L32.2724486,11.2773071 L32.2724486,11.2773071 Z M40.3602752,11.2773071 L40.3602752,23.4368241 L47.2316299,23.4368241 L47.2316299,11.2773071 L40.3602752,11.2773071 L40.3602752,11.2773071 Z M48.415227,11.2773071 L48.415227,23.4368241 L55.3194565,23.4368241 L55.3194565,11.2773071 L48.415227,11.2773071 L48.415227,11.2773071 Z M56.5359284,11.2773071 L56.5359284,23.4368241 L63.4072832,23.4368241 L63.4072832,11.2773071 L56.5359284,11.2773071 L56.5359284,11.2773071 Z M64.5908802,11.2773071 L64.5908802,23.4368241 L71.462235,23.4368241 L71.462235,11.2773071 L64.5908802,11.2773071 L64.5908802,11.2773071 Z M72.6458321,11.2773071 L72.6458321,23.4368241 L79.5500616,23.4368241 L79.5500616,11.2773071 L72.6458321,11.2773071 L72.6458321,11.2773071 Z M80.7665335,11.2773071 L80.7665335,23.4368241 L87.670763,23.4368241 L87.670763,11.2773071 L80.7665335,11.2773071 L80.7665335,11.2773071 Z M88.8543601,11.2773071 L88.8543601,23.4368241 L95.7257148,23.4368241 L95.7257148,11.2773071 L88.8543601,11.2773071 L88.8543601,11.2773071 Z M96.9421867,11.2773071 L96.9421867,23.4368241 L103.846416,23.4368241 L103.846416,11.2773071 L96.9421867,11.2773071 L96.9421867,11.2773071 Z M105.030013,11.2773071 L105.030013,23.4368241 L111.868493,23.4368241 L111.868493,11.2773071 L105.030013,11.2773071 L105.030013,11.2773071 Z M113.05209,11.2773071 L113.05209,23.4368241 L119.95632,23.4368241 L119.95632,11.2773071 L113.05209,11.2773071 L113.05209,11.2773071 Z M121.172792,11.2773071 L121.172792,23.4368241 L128.077021,23.4368241 L128.077021,11.2773071 L121.172792,11.2773071 L121.172792,11.2773071 Z M129.260618,11.2773071 L129.260618,23.4368241 L136.131973,23.4368241 L136.131973,11.2773071 L129.260618,11.2773071 L129.260618,11.2773071 Z M137.348445,11.2773071 L137.348445,23.4368241 L144.2198,23.4368241 L144.2198,11.2773071 L137.348445,11.2773071 L137.348445,11.2773071 Z M145.403397,11.2773071 L145.403397,23.4368241 L152.307626,23.4368241 L152.307626,11.2773071 L145.403397,11.2773071 L145.403397,11.2773071 Z M153.491223,11.2773071 L153.491223,23.4368241 L160.362578,23.4368241 L160.362578,11.2773071 L153.491223,11.2773071 L153.491223,11.2773071 Z M161.57905,11.2773071 L161.57905,23.4368241 L168.450405,23.4368241 L168.450405,11.2773071 L161.57905,11.2773071 L161.57905,11.2773071 Z M169.634002,11.2773071 L169.634002,23.4368241 L176.538231,23.4368241 L176.538231,11.2773071 L169.634002,11.2773071 L169.634002,11.2773071 Z M177.754703,11.2773071 L177.754703,23.4368241 L184.658933,23.4368241 L184.658933,11.2773071 L177.754703,11.2773071 L177.754703,11.2773071 Z M185.84253,11.2773071 L185.84253,23.4368241 L192.713885,23.4368241 L192.713885,11.2773071 L185.84253,11.2773071 L185.84253,11.2773071 Z M193.897482,11.2773071 L193.897482,23.4368241 L200.801711,23.4368241 L200.801711,11.2773071 L193.897482,11.2773071 L193.897482,11.2773071 Z M202.018183,11.2773071 L202.018183,23.4368241 L208.889538,23.4368241 L208.889538,11.2773071 L202.018183,11.2773071 L202.018183,11.2773071 Z M210.073135,11.2773071 L210.073135,23.4368241 L216.977365,23.4368241 L216.977365,11.2773071 L210.073135,11.2773071 L210.073135,11.2773071 Z M218.193836,11.2773071 L218.193836,23.4368241 L225.098066,23.4368241 L225.098066,11.2773071 L218.193836,11.2773071 L218.193836,11.2773071 Z M226.281663,11.2773071 L226.281663,23.4368241 L233.153018,23.4368241 L233.153018,11.2773071 L226.281663,11.2773071 L226.281663,11.2773071 Z M234.336615,11.2773071 L234.336615,23.4368241 L241.240844,23.4368241 L241.240844,11.2773071 L234.336615,11.2773071 L234.336615,11.2773071 Z" id="path15409" fill="#FFE680" opacity="0.20192"></path>
                                <path d="M241.102687,12.2106237 C241.102687,13.4316128 188.959435,14.42134 124.64311,14.42134 C60.321638,14.42134 8.18353392,13.4316128 8.18353392,12.2106237 C8.18353392,10.9897187 60.3267856,9.99990735 124.64311,9.99990735 C188.964583,9.99990735 241.102687,10.9897187 241.102687,12.2106237 L241.102687,12.2106237 Z" id="path15468" fill="#220055"></path>
                                <polygon id="rect15338" fill="url(#linearGradient-4)" points="0.49936415 0.53057441 248.776978 0.53057441 248.776978 13.6929811 0.49936415 13.6929811"></polygon>
                                <path d="M237.550564,23.6810365 C237.550564,24.3775035 186.997007,24.9420558 124.641498,24.9420558 C62.2809988,24.9420558 11.7324325,24.3775035 11.7324325,23.6810365 C11.7324325,22.9846176 62.2859895,22.4200172 124.641498,22.4200172 C187.001998,22.4200172 237.550564,22.9846176 237.550564,23.6810365 L237.550564,23.6810365 Z" id="path15482" fill="#220055"></path>
                                <polygon id="rect15446" fill="url(#linearGradient-5)" points="0.49936415 20.04739 248.776978 20.04739 248.776978 24.096505 0.49936415 24.096505"></polygon>
                            </g>
                        </g>
                        <g id="g15763" transform="translate(16.645472, 29.129604)">
                            <g id="g15169" transform="translate(0.551714, 29.129575)">
                                <g id="g13668" transform="translate(74.058949, 2.742425)">
                                    <g id="g13670" transform="translate(6.005925, 0.103858)">
                                        <polygon id="path13672" fill="#130000" points="4.20247688 0.351748778 4.20247688 83.8920837 0.499858156 83.8920837 2.35116752 87.8261161 4.20247688 87.8261161 52.6253245 87.8261161 54.4766339 87.8261161 56.3279432 83.8920837 52.6253245 83.8920837 52.6253245 0.351748778"></polygon>
                                        <polygon id="path13674" fill="url(#linearGradient-6)" points="4.20247225 0.351748778 4.20247225 83.8920837 0.499853527 83.8920837 0.499853527 87.8261161 4.20247225 87.8261161 52.6253199 87.8261161 56.3279386 87.8261161 56.3279386 83.8920837 52.6253199 83.8920837 52.6253199 0.351748778"></polygon>
                                        <path d="M7.58837729,3.85499629 L7.58837729,83.7991365 L49.2343597,83.7991365 L49.2343597,3.85499629 L40.1963774,3.85499629 L40.1963774,83.5390506 L36.8802831,83.5390506 L36.8802831,3.85499629 L7.58837729,3.85499629 L7.58837729,3.85499629 Z M44.0003926,45.1763916 L47.0238383,45.1763916 L47.0238383,56.0677456 L44.0003926,56.0677456 L44.0003926,45.1763916 L44.0003926,45.1763916 Z" id="path13676" fill="#FFFFFF"></path>
                                    </g>
                                    <polygon id="path13678" fill="url(#linearGradient-7)" points="5.637237 89.7792474 5.637237 81.8385188 63.197222 81.8385188 63.197222 89.7792474"></polygon>
                                    <g id="g13680" transform="translate(0.000000, 88.862849)">
                                        <path d="M2.34445374,0.934037409 L2.34445374,3.70100379 L66.555148,3.70100379 L66.555148,0.934037409 C66.555148,0.934037409 45.1543608,0.0790393575 34.4498009,0.0790393575 C23.745241,0.0790393575 2.34445374,0.934037409 2.34445374,0.934037409 L2.34445374,0.934037409 Z" id="path13682" fill="#502D16"></path>
                                        <polygon id="path13684" fill="url(#linearGradient-8)" points="0.472083887 0.527623168 0.472083887 12.7268262 68.3725573 12.7268262 68.3725573 0.527623168"></polygon>
                                    </g>
                                </g>
                                <g id="g15121" transform="translate(0.000010, 0.000000)">
                                    <g id="g15067">
                                        <g id="g14446" transform="translate(3.357808, 7.542479)">
                                            <polygon id="path13642" fill="#13080B" points="2.55371914 0.260443373 63.8222866 0.260443373 63.8222866 70.6101991 2.55371914 70.6101991"></polygon>
                                            <g id="g14440" transform="translate(2.340749, 0.000000)">
                                                <polygon id="path13644" fill="url(#linearGradient-9)" points="0.374523113 0.260085495 61.3645717 0.260085495 61.3645717 70.6100909 0.374523113 70.6100909"></polygon>
                                                <path d="M3.49554905,3.79724823 L3.49554905,53.6691621 L58.2435458,53.6691621 L58.2435458,3.79724823 L3.49554905,3.79724823 Z M3.49554905,56.790188 L3.49554905,67.0960237 L58.2435458,67.0960237 L58.2435458,56.790188 L3.49554905,56.790188 Z" id="path13646" fill="#FFFFFF"></path>
                                            </g>
                                            <g id="g14435" transform="translate(0.000000, 68.662571)">
                                                <g id="g13656" transform="translate(0.400324, 0.382929)">
                                                    <path d="M3.16185538,3.93032977 L3.16185538,6.67841339 C3.16185538,6.67841339 22.9501353,7.54621465 32.8395446,7.54621465 C42.7282443,7.54621465 62.4793886,6.67841339 62.4793886,6.67841339 L62.4793886,3.93032977 L3.16185538,3.93032977 L3.16185538,3.93032977 Z" id="path13658" fill="#502D16"></path>
                                                    <polygon id="path13660" fill="url(#linearGradient-10)" points="0.484890913 6.91464046 0.484890913 0.811058631 65.1066577 0.811058631 65.1066577 6.91464046"></polygon>
                                                </g>
                                            </g>
                                        </g>
                                        <g id="g14745" transform="translate(0.731360, 0.000000)">
                                            <polygon id="rect14735" fill="url(#linearGradient-11)" points="4.91502598 11.2981139 66.7518483 11.2981139 66.7518483 37.5667489 4.91502598 37.5667489"></polygon>
                                            <path d="M6.99917532,0.353716273 C4.34004596,0.353716273 2.88348191,2.76273216 2.20184248,5.5430461 L0.668042307,18.8843917 L29.3869515,18.8843917 L42.2774709,18.8843917 L70.9963801,18.8843917 L69.4625799,5.5430461 C68.7810408,2.76273216 67.3243764,0.353716273 64.665247,0.353716273 L42.2779167,0.353716273 L29.3873973,0.353716273 L6.99917532,0.353716273 Z" id="rect14721" fill="url(#linearGradient-12)"></path>
                                            <polygon id="path14776" fill="#FFEEAA" points="1.14585672 14.6584185 1.01581612 15.7637819 70.6197923 15.7637819 70.4897516 14.6584185"></polygon>
                                        </g>
                                    </g>
                                    <g id="g15083" transform="translate(143.827279, 0.000000)">
                                        <g id="g15087" transform="translate(3.357808, 7.542479)">
                                            <polygon id="path15089" fill="#13080B" points="2.55371914 0.260443373 63.8222866 0.260443373 63.8222866 70.6101991 2.55371914 70.6101991"></polygon>
                                            <g id="g15091" transform="translate(2.340749, 0.000000)">
                                                <polygon id="path15093" fill="url(#linearGradient-9)" points="0.374523113 0.260085495 61.3645717 0.260085495 61.3645717 70.6100909 0.374523113 70.6100909"></polygon>
                                                <path d="M3.49554905,3.79724823 L3.49554905,53.6691621 L58.2435458,53.6691621 L58.2435458,3.79724823 L3.49554905,3.79724823 Z M3.49554905,56.790188 L3.49554905,67.0960237 L58.2435458,67.0960237 L58.2435458,56.790188 L3.49554905,56.790188 Z" id="path15095" fill="#FFFFFF"></path>
                                            </g>
                                            <g id="g15097" transform="translate(0.000000, 68.662571)">
                                                <g id="g15099" transform="translate(0.400324, 0.382929)">
                                                    <path d="M3.16185538,3.93032977 L3.16185538,6.67841339 C3.16185538,6.67841339 22.9501353,7.54621465 32.8395446,7.54621465 C42.7282443,7.54621465 62.4793886,6.67841339 62.4793886,6.67841339 L62.4793886,3.93032977 L3.16185538,3.93032977 L3.16185538,3.93032977 Z" id="path15101" fill="#502D16"></path>
                                                    <polygon id="path15103" fill="url(#linearGradient-10)" points="0.484890913 6.91464046 0.484890913 0.811058631 65.1066577 0.811058631 65.1066577 6.91464046"></polygon>
                                                </g>
                                            </g>
                                        </g>
                                        <g id="g15105" transform="translate(0.731360, 0.000000)">
                                            <polygon id="path15107" fill="url(#linearGradient-11)" points="4.91502598 11.2981139 66.7518483 11.2981139 66.7518483 37.5667489 4.91502598 37.5667489"></polygon>
                                            <path d="M6.99917532,0.353716273 C4.34004596,0.353716273 2.88348191,2.76273216 2.20184248,5.5430461 L0.668042307,18.8843917 L29.3869515,18.8843917 L42.2774709,18.8843917 L70.9963801,18.8843917 L69.4625799,5.5430461 C68.7810408,2.76273216 67.3243764,0.353716273 64.665247,0.353716273 L42.2779167,0.353716273 L29.3873973,0.353716273 L6.99917532,0.353716273 Z" id="path15109" fill="url(#linearGradient-12)"></path>
                                            <polygon id="path15111" fill="#FFEEAA" points="1.14585672 14.6584185 1.01581612 15.7637819 70.6197923 15.7637819 70.4897516 14.6584185"></polygon>
                                        </g>
                                    </g>
                                </g>
                            </g>
                            <g id="g15657" transform="translate(49.936415, 0.000000)">
                                <path d="M28.7446457,1.33163773 C26.7069279,1.33163773 25.0709901,3.0001382 25.0709901,5.03785604 L25.0709901,8.15888198 L29.9475932,8.15888198 C31.5307856,8.15888198 32.8085336,9.43663 32.8085336,11.0198224 L32.8085336,16.3191164 C32.8085336,17.9023088 31.5307856,19.1800568 29.9475932,19.1800568 L25.0709901,19.1800568 L25.0709901,22.3010828 C25.0709901,24.3388006 26.7070319,25.9747384 28.7446457,25.9747384 L89.4423582,25.9747384 C91.480076,25.9747384 93.1160138,24.3386966 93.1160138,22.3010828 L93.1160138,19.1800568 L88.2719735,19.1800568 C86.6887811,19.1800568 85.411033,17.9023088 85.411033,16.3191164 L85.411033,11.0198224 C85.411033,9.43663 86.6887811,8.15888198 88.2719735,8.15888198 L93.1160138,8.15888198 L93.1160138,5.03785604 C93.1160138,3.0001382 91.479972,1.33163773 89.4423582,1.33163773 L28.7446457,1.33163773 L28.7446457,1.33163773 Z M2.96393112,10.1745446 C1.86200089,10.1745446 0.980831235,11.0557558 0.980831235,12.1576444 L0.980831235,15.1486276 C0.980831235,16.2505579 1.86204251,17.1317275 2.96393112,17.1317275 L29.0369818,17.1317275 C30.138912,17.1317275 31.0200817,16.2505163 31.0200817,15.1486276 L31.0200817,12.1576444 C31.0200817,11.0557142 30.1388704,10.1745446 29.0369818,10.1745446 L2.96393112,10.1745446 L2.96393112,10.1745446 Z M89.1500221,10.1745446 C88.0480919,10.1745446 87.1669222,11.0557558 87.1669222,12.1576444 L87.1669222,15.1486276 C87.1669222,16.2505579 88.0481335,17.1317275 89.1500221,17.1317275 L115.223073,17.1317275 C116.325003,17.1317275 117.206173,16.2505163 117.206173,15.1486276 L117.206173,12.1576444 C117.206173,11.0557142 116.324961,10.1745446 115.223073,10.1745446 L89.1500221,10.1745446 L89.1500221,10.1745446 Z" id="path15305" fill="#11002B"></path>
                                <path d="M28.7446489,0.551381249 C26.7069311,0.551381249 25.0709933,2.21988172 25.0709933,4.25759955 L25.0709933,7.37862549 L29.9475963,7.37862549 C31.5307888,7.37862549 32.8085368,8.65637351 32.8085368,10.2395659 L32.8085368,15.5388599 C32.8085368,17.1220523 31.5307888,18.3998004 29.9475963,18.3998004 L25.0709933,18.3998004 L25.0709933,21.5208263 C25.0709933,23.5585441 26.7070351,25.1944819 28.7446489,25.1944819 L89.4423614,25.1944819 C91.4800792,25.1944819 93.116017,23.5584401 93.116017,21.5208263 L93.116017,18.3998004 L88.2719767,18.3998004 C86.6887842,18.3998004 85.4110362,17.1220523 85.4110362,15.5388599 L85.4110362,10.2395659 C85.4110362,8.65637351 86.6887842,7.37862549 88.2719767,7.37862549 L93.116017,7.37862549 L93.116017,4.25759955 C93.116017,2.21988172 91.4799752,0.551381249 89.4423614,0.551381249 L28.7446489,0.551381249 L28.7446489,0.551381249 Z M2.9639343,9.39428808 C1.86200408,9.39428808 0.980834419,10.2754994 0.980834419,11.377388 L0.980834419,14.3683712 C0.980834419,15.4703014 1.86204569,16.351471 2.9639343,16.351471 L29.036985,16.351471 C30.1389152,16.351471 31.0200849,15.4702598 31.0200849,14.3683712 L31.0200849,11.377388 C31.0200849,10.2754577 30.1388736,9.39428808 29.036985,9.39428808 L2.9639343,9.39428808 L2.9639343,9.39428808 Z M89.1500253,9.39428808 C88.0480951,9.39428808 87.1669254,10.2754994 87.1669254,11.377388 L87.1669254,14.3683712 C87.1669254,15.4703014 88.0481367,16.351471 89.1500253,16.351471 L115.223076,16.351471 C116.325006,16.351471 117.206176,15.4702598 117.206176,14.3683712 L117.206176,11.377388 C117.206176,10.2754577 116.324965,9.39428808 115.223076,9.39428808 L89.1500253,9.39428808 L89.1500253,9.39428808 Z" id="rect15258" fill="url(#linearGradient-13)"></path>
                                <g id="g15327" transform="translate(33.851875, 2.080684)" opacity="0.77404">
                                    <rect id="rect15321" stroke="#FFF6D5" stroke-width="0.52017099" x="1.21251608" y="0.90591648" width="48.0603814" height="19.7628051"></rect>
                                    <rect id="rect15319" stroke="#806600" stroke-width="0.51635" x="0.873887263" y="0.582591509" width="48.7358604" height="20.4135903"></rect>
                                </g>
                                <g id="g15564" transform="translate(1.032333, 10.403420)" stroke="#786721" stroke-width="0.51635" fill="url(#linearGradient-14)">
                                    <g id="g15525" transform="translate(87.128641, 0.000000)">
                                        <path d="M27.4442214,2.46852345 C27.4442214,3.6894688 26.4544505,4.67925016 25.2334947,4.67925016 C24.012539,4.67925016 23.022768,3.6894792 23.022768,2.46852345 C23.022768,1.2475677 24.012539,0.257796743 25.2334947,0.257796743 C26.4544505,0.257796743 27.4442214,1.2475781 27.4442214,2.46852345 L27.4442214,2.46852345 Z" id="path15501" transform="translate(25.233495, 2.468523) scale(-1, 1) translate(-25.233495, -2.468523) "></path>
                                        <path d="M21.8471816,2.46852345 C21.8471816,3.6894688 20.8574106,4.67925016 19.6364549,4.67925016 C18.4154991,4.67925016 17.4257282,3.6894792 17.4257282,2.46852345 C17.4257282,1.2475677 18.4154991,0.257796743 19.6364549,0.257796743 C20.8574106,0.257796743 21.8471816,1.2475781 21.8471816,2.46852345 L21.8471816,2.46852345 Z" id="path15509" transform="translate(19.636455, 2.468523) scale(-1, 1) translate(-19.636455, -2.468523) "></path>
                                        <path d="M16.2605451,2.46852345 C16.2605451,3.6894688 15.2707742,4.67925016 14.0498184,4.67925016 C12.8288627,4.67925016 11.8390917,3.6894792 11.8390917,2.46852345 C11.8390917,1.2475677 12.8288627,0.257796743 14.0498184,0.257796743 C15.2707742,0.257796743 16.2605451,1.2475781 16.2605451,2.46852345 L16.2605451,2.46852345 Z" id="path15513" transform="translate(14.049818, 2.468523) scale(-1, 1) translate(-14.049818, -2.468523) "></path>
                                        <path d="M10.6635053,2.46852345 C10.6635053,3.6894688 9.67373434,4.67925016 8.45277859,4.67925016 C7.23182284,4.67925016 6.24205188,3.6894792 6.24205188,2.46852345 C6.24205188,1.2475677 7.23182284,0.257796743 8.45277859,0.257796743 C9.67373434,0.257796743 10.6635053,1.2475781 10.6635053,2.46852345 L10.6635053,2.46852345 Z" id="path15517" transform="translate(8.452779, 2.468523) scale(-1, 1) translate(-8.452779, -2.468523) "></path>
                                        <path d="M5.06646544,2.46852345 C5.06646544,3.6894688 4.07669449,4.67925016 2.85573874,4.67925016 C1.63478298,4.67925016 0.645012028,3.6894792 0.645012028,2.46852345 C0.645012028,1.2475677 1.63478298,0.257796743 2.85573874,0.257796743 C4.07669449,0.257796743 5.06646544,1.2475781 5.06646544,2.46852345 L5.06646544,2.46852345 Z" id="path15521" transform="translate(2.855739, 2.468523) scale(-1, 1) translate(-2.855739, -2.468523) "></path>
                                    </g>
                                    <g id="g15542" transform="translate(14.960118, 2.600855) scale(-1, 1) translate(-14.960118, -2.600855) translate(0.915501, 0.000000)">
                                        <path d="M27.4442214,2.46852345 C27.4442214,3.6894688 26.4544505,4.67925016 25.2334947,4.67925016 C24.012539,4.67925016 23.022768,3.6894792 23.022768,2.46852345 C23.022768,1.2475677 24.012539,0.257796743 25.2334947,0.257796743 C26.4544505,0.257796743 27.4442214,1.2475781 27.4442214,2.46852345 L27.4442214,2.46852345 Z" id="path15544" transform="translate(25.233495, 2.468523) scale(-1, 1) translate(-25.233495, -2.468523) "></path>
                                        <path d="M21.8471816,2.46852345 C21.8471816,3.6894688 20.8574106,4.67925016 19.6364549,4.67925016 C18.4154991,4.67925016 17.4257282,3.6894792 17.4257282,2.46852345 C17.4257282,1.2475677 18.4154991,0.257796743 19.6364549,0.257796743 C20.8574106,0.257796743 21.8471816,1.2475781 21.8471816,2.46852345 L21.8471816,2.46852345 Z" id="path15546" transform="translate(19.636455, 2.468523) scale(-1, 1) translate(-19.636455, -2.468523) "></path>
                                        <path d="M16.2605451,2.46852345 C16.2605451,3.6894688 15.2707742,4.67925016 14.0498184,4.67925016 C12.8288627,4.67925016 11.8390917,3.6894792 11.8390917,2.46852345 C11.8390917,1.2475677 12.8288627,0.257796743 14.0498184,0.257796743 C15.2707742,0.257796743 16.2605451,1.2475781 16.2605451,2.46852345 L16.2605451,2.46852345 Z" id="path15548" transform="translate(14.049818, 2.468523) scale(-1, 1) translate(-14.049818, -2.468523) "></path>
                                        <path d="M10.6635053,2.46852345 C10.6635053,3.6894688 9.67373434,4.67925016 8.45277859,4.67925016 C7.23182284,4.67925016 6.24205188,3.6894792 6.24205188,2.46852345 C6.24205188,1.2475677 7.23182284,0.257796743 8.45277859,0.257796743 C9.67373434,0.257796743 10.6635053,1.2475781 10.6635053,2.46852345 L10.6635053,2.46852345 Z" id="path15550" transform="translate(8.452779, 2.468523) scale(-1, 1) translate(-8.452779, -2.468523) "></path>
                                        <path d="M5.06646544,2.46852345 C5.06646544,3.6894688 4.07669449,4.67925016 2.85573874,4.67925016 C1.63478298,4.67925016 0.645012028,3.6894792 0.645012028,2.46852345 C0.645012028,1.2475677 1.63478298,0.257796743 2.85573874,0.257796743 C4.07669449,0.257796743 5.06646544,1.2475781 5.06646544,2.46852345 L5.06646544,2.46852345 Z" id="path15552" transform="translate(2.855739, 2.468523) scale(-1, 1) translate(-2.855739, -2.468523) "></path>
                                    </g>
                                </g>
                            </g>
                        </g>
                    </g>
                    <rect id="Rectangle-5" fill="#FFFFFF" style="mix-blend-mode: color;" x="0" y="0" width="272" height="205"></rect>
                </g>
            </g>
        </g>
    </g>
</svg>