<?xml version="1.0" encoding="UTF-8" standalone="no"?>
<svg width="80px" height="60px" viewBox="0 0 80 60" version="1.1" xmlns="http://www.w3.org/2000/svg" xmlns:xlink="http://www.w3.org/1999/xlink">
    <!-- Generator: Sketch 40.3 (33839) - http://www.bohemiancoding.com/sketch -->
    <title>Group</title>
    <desc>Created with Sketch.</desc>
    <defs></defs>
    <g id="Page-1" stroke="none" stroke-width="1" fill="none" fill-rule="evenodd">
        <g id="Group" transform="translate(1.000000, 1.000000)" stroke="#9AAD2B">
            <path d="M33.1931228,5.27282713 C46.5304201,5.5229958 60.8767985,4.7696946 73.5795552,5.65157412 C74.3455012,6.78362231 73.7945822,9.22591147 73.9604201,10.9561283 C64.9419336,12.3495259 55.4175012,9.03024882 46.1467444,10.9561283 C43.7442039,11.4550681 41.3971768,14.5675018 38.9075012,15.1237428 C28.3002039,17.4947548 14.3754471,13.3425139 2.71198765,15.1237428 C3.65079846,9.69340544 0.52658224,2.3770199 4.99787954,0.725766888 C10.9462579,-1.46914877 25.0579336,2.11077894 31.2880958,1.10451388 C33.1172309,1.30646568 33.3097714,3.13521267 33.1931228,5.27282713 Z" id="Shape"></path>
            <path d="M75.4386486,58.4793199 L2.28589189,58.4793199 C0.784216216,46.0771031 0.0379459459,30.9139465 0,18.3174645 C13.3239459,15.7829344 27.3098378,20.417344 39.2438378,17.9387175 C42.0251351,17.3608139 44.3440541,13.9786452 46.8639459,13.3916573 C51.810973,12.239344 58.1641081,13.3916573 63.2467568,13.3916573 C68.5050811,13.3923561 73.3502162,13.2672718 77.7245405,13.7711031 C77.8025405,28.0055609 76.6711892,44.289585 75.4386486,58.4793199 Z" id="Shape"></path>
        </g>
    </g>
</svg>