<?xml version="1.0" encoding="UTF-8" standalone="no"?>
<svg width="78px" height="58px" viewBox="0 0 78 58" version="1.1" xmlns="http://www.w3.org/2000/svg" xmlns:xlink="http://www.w3.org/1999/xlink">
    <!-- Generator: Sketch 40.3 (33839) - http://www.bohemiancoding.com/sketch -->
    <title>Group 10</title>
    <desc>Created with Sketch.</desc>
    <defs></defs>
    <g id="style-guide" stroke="none" stroke-width="1" fill="none" fill-rule="evenodd">
        <g id="Mockup---with-revised-logo" transform="translate(-520.000000, -1208.000000)" fill="#9B9B9B">
            <g id="Group-10" transform="translate(520.000000, 1208.000000)">
                <path d="M32.2880958,1.10451388 C34.1172309,1.30646568 34.3097714,3.13521267 34.1931228,5.27282713 C47.5304201,5.5229958 61.8767985,4.7696946 74.5795552,5.65157412 C75.3455012,6.78362231 74.7945822,9.22591147 74.9604201,10.9561283 C65.9419336,12.3495259 56.4175012,9.03024882 47.1467444,10.9561283 C44.7442039,11.4550681 42.3971768,14.5675018 39.9075012,15.1237428 C29.3002039,17.4947548 15.3754471,13.3425139 3.71198765,15.1237428 C4.65079846,9.69340544 1.52658224,2.3770199 5.99787954,0.725766888 C11.9462579,-1.46914877 26.0579336,2.11077894 32.2880958,1.10451388 L32.2880958,1.10451388 Z" id="Shape"></path>
                <path d="M77.7245405,12.7711031 C77.8025405,27.0055609 76.6711892,43.289585 75.4386486,57.4793199 L2.28589189,57.4793199 C0.784216216,45.0771031 0.0379459459,29.9139465 0,17.3174645 C13.3239459,14.7829344 27.3098378,19.417344 39.2438378,16.9387175 C42.0251351,16.3608139 44.3440541,12.9786452 46.8639459,12.3916573 C51.810973,11.239344 58.1641081,12.3916573 63.2467568,12.3916573 C68.5050811,12.3923561 73.3502162,12.2672718 77.7245405,12.7711031 L77.7245405,12.7711031 Z" id="Shape"></path>
            </g>
        </g>
    </g>
</svg>