<?xml version="1.0" encoding="UTF-8" standalone="no"?>
<svg width="180px" height="180px" viewBox="0 0 180 180" version="1.1" xmlns="http://www.w3.org/2000/svg" xmlns:xlink="http://www.w3.org/1999/xlink">
    <!-- Generator: Sketch 40.3 (33839) - http://www.bohemiancoding.com/sketch -->
    <title>Group</title>
    <desc>Created with Sketch.</desc>
    <defs></defs>
    <g id="Page-1" stroke="none" stroke-width="1" fill="none" fill-rule="evenodd">
        <g id="Group" transform="translate(1.000000, 0.000000)">
            <path d="M46.231,4.888 C48.107,18.663 51.368,57.681 33.131,46.81 C25.271,42.124 29.821,12.183 32.256,3.141 C36.553,0.422 43.748,1.085 46.231,4.888 L46.231,4.888 L46.231,4.888 Z" id="Shape" fill="#9AAD2B"></path>
            <path d="M146.668,4.014 C148.992,14.815 154.289,58.359 134.441,46.809 C126.296,42.07 126.597,-14.197 146.668,4.014 L146.668,4.014 L146.668,4.014 Z" id="Shape" fill="#9AAD2B"></path>
            <path d="M50.598,19.735 C75.944,19.753 105.886,19.711 128.327,19.735 C126.535,33.538 120.464,53.053 138.808,53.797 C145.623,54.073 152.362,49.495 153.655,43.317 C155.261,35.638 148.702,29.033 150.161,19.736 C179.817,14.406 177.236,32.991 177.236,58.164 L177.236,133.274 C177.236,149.692 180.675,172.111 168.502,176.943 C160.043,180.299 142.568,177.817 128.327,177.817 L47.977,177.817 C29.401,177.817 6.752,181.846 1.688,169.083 C-1.423,161.244 0.814,144.448 0.814,132.401 L0.814,57.291 C0.814,32.728 -1.531,14.793 27.889,19.736 C25.517,33.722 19.55,53.639 38.369,53.798 C57.89,53.961 50.41,32.292 50.598,19.735 L50.598,19.735 L50.598,19.735 Z M11.296,68.644 L11.296,117.553 C11.296,128.61 7.813,155.119 15.662,162.969 C25.296,172.602 68.543,167.335 89.025,167.335 C105.953,167.335 152.93,172.426 162.389,162.969 C170.578,154.779 166.755,128.228 166.755,116.68 L166.755,66.025 L12.169,66.025 C11.152,66.17 11.221,67.404 11.296,68.644 L11.296,68.644 L11.296,68.644 Z" id="Shape" stroke="#9AAD2B" fill="#9AAD2B"></path>
            <polygon id="Shape" stroke="#9AAD2B" points="134.441 82.618 151.908 82.618 151.908 100.085 134.441 100.085 134.441 82.618"></polygon>
            <polygon id="Shape" stroke="#9AAD2B" points="26.144 109.692 43.611 109.692 43.611 127.159 26.144 127.159 26.144 109.692"></polygon>
            <polygon id="Shape" stroke="#9AAD2B" points="53.218 109.692 70.685 109.692 70.685 127.159 53.218 127.159 53.218 109.692"></polygon>
            <polygon id="Shape" stroke="#9AAD2B" points="80.292 109.692 97.759 109.692 97.759 127.159 80.292 127.159 80.292 109.692"></polygon>
            <polygon id="Shape-Copy" stroke="#9AAD2B" fill="#9AAD2B" points="80.292 82.692 97.759 82.692 97.759 100.159 80.292 100.159 80.292 82.692"></polygon>
            <polygon id="Shape-Copy-2" stroke="#9AAD2B" points="107.292 82.692 124.759 82.692 124.759 100.159 107.292 100.159 107.292 82.692"></polygon>
            <polygon id="Shape-Copy-3" stroke="#9AAD2B" points="107 110 124.468 110 124.468 127.467 107 127.467 107 110"></polygon>
            <polygon id="Shape" stroke="#9AAD2B" points="134.441 109.692 151.908 109.692 151.908 127.159 134.441 127.159 134.441 109.692"></polygon>
            <polygon id="Shape" stroke="#9AAD2B" points="26.144 136.767 43.611 136.767 43.611 154.235 26.144 154.235 26.144 136.767"></polygon>
            <polygon id="Shape" stroke="#9AAD2B" points="53.218 136.767 70.685 136.767 70.685 154.235 53.218 154.235 53.218 136.767"></polygon>
            <polygon id="Shape" stroke="#9AAD2B" fill="#9AAD2B" points="97.759 136.767 97.759 154.235 80.292 154.235 80.292 136.767"></polygon>
            <polygon id="Shape" stroke="#9AAD2B" points="107.367 136.767 124.835 136.767 124.835 154.235 107.367 154.235 107.367 136.767"></polygon>
        </g>
    </g>
</svg>