<?xml version="1.0" encoding="UTF-8" standalone="no"?>
<svg width="126px" height="95px" viewBox="0 0 126 95" version="1.1" xmlns="http://www.w3.org/2000/svg" xmlns:xlink="http://www.w3.org/1999/xlink">
    <!-- Generator: Sketch 40.3 (33839) - http://www.bohemiancoding.com/sketch -->
    <title>Shape</title>
    <desc>Created with Sketch.</desc>
    <defs></defs>
    <g id="Symbols" stroke="none" stroke-width="1" fill="none" fill-rule="evenodd">
        <g id="House" fill="#9B9B9B">
            <path d="M82.043,14.971 L82.043,5.82 L103.284,5.82 C105.003,15.177 100.937,23.614 103.284,30.985 C104.44,34.616 111.653,38.416 114.967,41.05 C117.031,42.692 118.922,44.583 120.808,46.082 C122.637,47.536 126.442,48.508 125.588,51.115 C122.96,54.036 114.314,51.772 109.126,52.488 C107.544,65.156 109.642,80.994 108.064,93.666 C98.627,94.422 85.639,94.422 76.202,93.666 C75,86.008 75.998,76.455 75.671,68.044 C69.536,66.01 59.117,67.666 51.244,67.129 C48.51,74.076 51.511,85.965 49.651,93.666 C40.215,94.422 27.226,94.422 17.79,93.666 C17.131,80.396 17.524,66.937 17.259,52.488 C11.814,51.993 3.993,53.547 0.266,51.572 C-0.411,48.103 4.353,46.571 6.639,44.71 C24.207,30.4 43.832,14.656 61.866,0.329 C70.025,3.974 74.924,10.428 82.043,14.971 L82.043,14.971 Z" id="Shape"></path>
        </g>
    </g>
</svg>