<?xml version="1.0" encoding="UTF-8" standalone="no"?>
<svg width="131px" height="97px" viewBox="0 0 131 97" version="1.1" xmlns="http://www.w3.org/2000/svg" xmlns:xlink="http://www.w3.org/1999/xlink">
    <!-- Generator: Sketch 40.3 (33839) - http://www.bohemiancoding.com/sketch -->
    <title>Group 2</title>
    <desc>Created with Sketch.</desc>
    <defs></defs>
    <g id="Page-1" stroke="none" stroke-width="1" fill="none" fill-rule="evenodd">
        <g id="Group-2" transform="translate(1.000000, 1.000000)" stroke-width="2" stroke="#9AAD2B">
            <g id="Symbols">
                <g id="House">
                    <g id="Group">
                        <path d="M82.043,5.82 L103.284,5.82 C103.768078,8.4549726 103.439173,13.3950843 103.284,30.985 C103.251109,34.7134191 111.653,38.416 114.967,41.05 C117.031,42.692 122,46 122,46 C122,46 132.5,52.5 126.5,52.5 C120.5,52.5 114.314,51.772 109.126,52.488 C107.544,65.156 109.642,80.994 108.064,93.666 C98.627,94.422 84.937,94.756 75.5,94 C75.5,88.5 75.5,89.5 75.5926369,82.7516598 C75.6852738,76.0033196 75.8545708,72.7657548 75.671,68.044 C69.536,66.01 59.117,67.666 51.244,67.129 C50.5,79.5 50.7044455,71.7534524 50.5,79 C50.2955545,86.2465476 51.4197828,89.6918023 50.5,93.5 C41.064,94.256 27.226,94.422 17.79,93.666 C17.131,80.396 17.524,66.937 17.259,52.488 C11.814,51.993 3.993,53.547 0.266,51.572 C-0.411,48.103 4.353,46.571 6.639,44.71 C24.207,30.4 43.832,14.656 61.866,0.329 C66.8131933,2.53913844 74.5,9.5 74.5,9.5 C74.5,9.5 79.1975914,13.7116389 82,15.5 L82.043,5.82 Z" id="Shape"></path>
                    </g>
                </g>
            </g>
        </g>
    </g>
</svg>