<?xml version="1.0" encoding="UTF-8" standalone="no"?>
<svg width="279px" height="349px" viewBox="0 0 279 349" version="1.1" xmlns="http://www.w3.org/2000/svg" xmlns:xlink="http://www.w3.org/1999/xlink">
    <!-- Generator: Sketch 40.3 (33839) - http://www.bohemiancoding.com/sketch -->
    <title>Group</title>
    <desc>Created with Sketch.</desc>
    <defs></defs>
    <g id="Page-1" stroke="none" stroke-width="1" fill="none" fill-rule="evenodd">
        <g id="Group" transform="translate(-32.000000, -8.000000)" stroke="#9AAD2B" stroke-width="6">
            <path d="M142.24698,341.903343 C170.172905,346.391401 188.37589,347.27386 215.878957,335.2687 C243.382024,323.26354 247.311034,292.457832 239.453015,263.412374 C231.594995,234.366916 205.716376,215.456151 200.162919,212.069526 C176.588861,197.693529 158.908318,192.454884 145.156784,181.557282 C141.810515,178.905482 123.755202,167.105235 113.724708,156.619251 C103.902184,146.350682 103.163398,147.878901 89.4118642,131.44919 C75.6603306,115.019479 66.5765926,87.086443 64.6120878,89.140156 C62.647583,91.19387 49.9049435,121.407238 46.9315446,130.214434 C35.1445158,165.12757 35.1445158,192.198524 35.1445158,199.723583 C35.1445158,217.116069 36.5402329,239.092055 42.2546195,254.644946 C46.6179733,266.52072 50.3519196,277.789788 55.728915,284.88471 C58.1066121,288.022071 61.2409394,293.140809 65.0093131,297.548604 C69.7628529,303.10873 75.6755433,309.413693 78.2629233,311.78208 C86.6027264,319.416009 92.5774646,322.53354 98.5067411,326.637646 C102.356753,329.302533 118.916299,336.580536 118.916299,336.580536 C118.916299,336.580536 132.453983,340.329482 142.24698,341.903343 L142.24698,341.903343 L142.24698,341.903343 Z" id="Oval-2" transform="translate(139.086356, 216.999323) rotate(18.000000) translate(-139.086356, -216.999323) "></path>
            <path d="M316.018434,215.443906 C316.018434,201.078113 316.018434,199.68171 314.806586,188.948828 C313.416198,176.634686 310.430579,165.223492 304.019474,151.300414 C292.020513,125.24212 284.021206,119.228667 278.021726,113.215215 C272.022246,107.201762 262.713095,100.519113 256.023632,97.1793424 C252.478888,95.4095984 246.024499,89.1614054 222.026578,85.1524374 C216.809502,84.2808994 210.027618,83.1479534 198.028657,81.1434694 C172.233104,76.8341974 160.03195,71.1210484 152.032643,65.1075954 C144.818689,59.6845304 136.034029,53.080691 126.034895,43.0582703 C116.035762,33.0358495 118.231124,31.0313654 116.035762,31.0313654 C114.060197,31.0313654 99.3999079,58.3671074 96.0374947,65.1075954 C92.6750814,71.8480834 83.5337067,95.6613324 84.0385343,97.1793424 C86.0383611,103.192794 98.0373214,121.233151 106.036628,131.255572 C117.638082,145.791163 136.933547,165.347389 160.169862,180.614139 C183.406177,195.880889 165.905345,184.984978 184.02987,195.399065 C202.154395,205.813153 243.189292,223.343727 252.936746,239.627318 C258.936226,249.649739 264.022939,255.533589 272.022246,281.591883 C280.021553,307.650177 268.022593,339.721923 284.021206,317.672597 C298.191045,298.143694 316.018434,250.75382 316.018434,215.443906 Z" id="Oval-2-Copy-2" transform="translate(200.018434, 178.031365) rotate(20.000000) translate(-200.018434, -178.031365) "></path>
        </g>
    </g>
</svg>