<?xml version="1.0" encoding="UTF-8" standalone="no"?>
<svg width="271px" height="414px" viewBox="0 0 271 414" version="1.1" xmlns="http://www.w3.org/2000/svg" xmlns:xlink="http://www.w3.org/1999/xlink">
    <!-- Generator: Sketch 40.3 (33839) - http://www.bohemiancoding.com/sketch -->
    <title>Group</title>
    <desc>Created with Sketch.</desc>
    <defs></defs>
    <g id="Symbols" stroke="none" stroke-width="1" fill="none" fill-rule="evenodd">
        <g id="leaf" transform="translate(1.000000, 2.000000)" stroke-width="4" stroke="#9B9B9B" fill="#9B9B9B">
            <g id="Group">
                <path d="M215.920688,128.886986 C205.48113,124.790713 189.000461,120.328489 180.426189,118.646303 C171.959824,116.985287 153.283336,114.55003 142.843778,112.501893 C132.404219,110.453757 119.876748,104.309347 113.613013,100.213073 C107.349278,96.1168001 99.7202151,90.6812088 94.8218077,85.8761169 C84.382249,75.6354337 82.2943373,73.5872971 78.1185138,63.3466138 C76.786992,60.0812237 86.975797,46.8555386 90.6459842,40.8171108 C91.9373266,38.6925112 93.3420023,36.5606466 94.8388589,34.4241325 C102.42971,23.5894536 112.391179,12.6352059 121.96466,1.90251455 C124.625086,-1.08005045 136.580042,-0.145622097 140.755866,1.90251455 C144.931689,3.95065119 227.303936,133.353544 215.920688,128.886986 Z" id="Triangle-2"></path>
                <path d="M109.319955,407.074184 C137.24588,411.562242 155.448865,412.444701 182.951932,400.439541 C210.454999,388.434381 214.384009,357.628673 206.52599,328.583215 C198.66797,299.537757 172.789351,280.626992 167.235894,277.240367 C143.661836,262.86437 125.981293,257.625725 112.229759,246.728123 C108.88349,244.076323 90.8281771,232.276076 80.7976825,221.790092 C70.9751585,211.521523 70.2363725,213.049742 56.4848389,196.620031 C42.7333053,180.19032 33.6495673,152.257284 31.6850625,154.310997 C29.7205577,156.364711 16.9779182,186.578079 14.0045193,195.385275 C2.21749052,230.298411 2.21749052,257.369365 2.21749052,264.894424 C2.21749052,282.28691 3.61320761,304.262896 9.32759421,319.815787 C13.690948,331.691561 17.4248943,342.960629 22.8018897,350.055551 C25.1795868,353.192912 28.3139141,358.31165 32.0822878,362.719445 C36.8358276,368.279571 42.748518,374.584534 45.335898,376.952921 C53.6757011,384.58685 59.6504393,387.704381 65.5797158,391.808487 C69.4297279,394.473374 85.9892735,401.751377 85.9892735,401.751377 C85.9892735,401.751377 99.5269578,405.500323 109.319955,407.074184 Z" id="Oval-2" transform="translate(106.159330, 282.170165) rotate(-1.000000) translate(-106.159330, -282.170165) "></path>
                <path d="M236.002121,361.641232 C250.17196,342.112329 267.999349,294.722455 267.999349,259.412541 C267.999349,245.046748 267.999349,243.650345 266.787501,232.917463 C265.397113,220.603321 262.411494,209.192127 256.000389,195.269049 C244.001428,169.210755 236.002121,163.197302 230.002641,157.18385 C224.003161,151.170397 214.69401,144.487748 208.004547,141.147977 C204.459803,139.378233 198.005414,133.13004 174.007493,129.121072 C168.790417,128.249534 162.008533,127.116588 150.009572,125.112104 C124.214019,120.802832 112.012865,115.089683 104.013558,109.07623 C96.7996042,103.653165 88.0149439,97.0493256 78.0158103,87.0269049 C68.0166767,77.0044841 70.2120384,75 68.0166767,75 C66.0411114,75 51.3808227,102.335742 48.0184095,109.07623 C44.6559962,115.816718 35.5146215,139.629967 36.0194491,141.147977 C38.0192759,147.161429 50.0182362,165.201786 58.0175431,175.224207 C69.6189973,189.759798 93.3013694,216.909965 108.013211,225.336311 C122.011998,233.354247 116.012518,229.345279 136.010785,239.3677 C156.009052,249.39012 194.25744,269.187244 204.004894,285.470835 C210.004374,295.493256 216.003854,299.502224 224.003161,325.560518 C232.002468,351.618812 220.003508,383.690558 236.002121,361.641232 Z" id="Oval-2-Copy-2"></path>
            </g>
        </g>
    </g>
</svg>