<?xml version="1.0" encoding="UTF-8" standalone="no"?>
<svg width="277px" height="347px" viewBox="0 0 277 347" version="1.1" xmlns="http://www.w3.org/2000/svg" xmlns:xlink="http://www.w3.org/1999/xlink">
    <!-- Generator: Sketch 40.3 (33839) - http://www.bohemiancoding.com/sketch -->
    <title>Group</title>
    <desc>Created with Sketch.</desc>
    <defs></defs>
    <g id="Page-1" stroke="none" stroke-width="1" fill="none" fill-rule="evenodd">
        <g id="Group" transform="translate(-37.000000, -22.000000)" stroke="#9AAD2B" stroke-width="4" fill="#9AAD2B">
            <g id="Symbols" transform="translate(182.782734, 203.298327) rotate(19.000000) translate(-182.782734, -203.298327) translate(47.782734, 35.298327)">
                <path d="M109.319955,331.074184 C137.24588,335.562242 155.448865,336.444701 182.951932,324.439541 C210.454999,312.434381 214.384009,281.628673 206.52599,252.583215 C198.66797,223.537757 172.789351,204.626992 167.235894,201.240367 C143.661836,186.86437 125.981293,181.625725 112.229759,170.728123 C108.88349,168.076323 90.8281771,156.276076 80.7976825,145.790092 C70.9751585,135.521523 70.2363725,137.049742 56.4848389,120.620031 C42.7333053,104.19032 33.6495673,76.257284 31.6850625,78.310997 C29.7205577,80.364711 16.9779182,110.578079 14.0045193,119.385275 C2.21749052,154.298411 2.21749052,181.369365 2.21749052,188.894424 C2.21749052,206.28691 3.61320761,228.262896 9.32759421,243.815787 C13.690948,255.691561 17.4248943,266.960629 22.8018897,274.055551 C25.1795868,277.192912 28.3139141,282.31165 32.0822878,286.719445 C36.8358276,292.279571 42.748518,298.584534 45.335898,300.952921 C53.6757011,308.58685 59.6504393,311.704381 65.5797158,315.808487 C69.4297279,318.473374 85.9892735,325.751377 85.9892735,325.751377 C85.9892735,325.751377 99.5269578,329.500323 109.319955,331.074184 L109.319955,331.074184 L109.319955,331.074184 Z" id="Oval-2" transform="translate(106.159330, 206.170164) rotate(-1.000000) translate(-106.159330, -206.170164) "></path>
                <path d="M267.085016,186.900233 C267.085016,172.53444 267.085016,171.138037 265.873168,160.405155 C264.48278,148.091013 261.497161,136.679819 255.086056,122.756741 C243.087095,96.698447 235.087788,90.684994 229.088308,84.671542 C223.088828,78.658089 213.779677,71.97544 207.090214,68.635669 C203.54547,66.865925 197.091081,60.617732 173.09316,56.608764 C167.876084,55.737226 161.0942,54.60428 149.095239,52.599796 C123.299686,48.290524 111.098532,42.577375 103.099225,36.563922 C95.8852715,31.140857 87.1006112,24.5370176 77.1014776,14.5145969 C67.102344,4.49217614 69.2977057,2.48769204 67.102344,2.48769204 C65.1267787,2.48769204 50.46649,29.823434 47.1040768,36.563922 C43.7416635,43.30441 34.6002888,67.117659 35.1051164,68.635669 C37.1049432,74.649121 49.1039035,92.689478 57.1032104,102.711899 C68.7046646,117.24749 88.0001289,136.803716 111.236444,152.070466 C134.472759,167.337216 116.971927,156.441305 135.096452,166.855392 C153.220977,177.269479 194.255874,194.800054 204.003328,211.083645 C210.002808,221.106065 215.089521,226.989916 223.088828,253.04821 C231.088135,279.106504 219.089175,311.17825 235.087788,289.128924 C249.257627,269.600021 267.085016,222.210147 267.085016,186.900233 Z" id="Oval-2-Copy-2" transform="translate(151.085016, 149.487692) rotate(1.000000) translate(-151.085016, -149.487692) "></path>
            </g>
        </g>
    </g>
</svg>