<?xml version="1.0" encoding="UTF-8" standalone="no"?>
<svg width="302px" height="611px" viewBox="0 0 302 611" version="1.1" xmlns="http://www.w3.org/2000/svg" xmlns:xlink="http://www.w3.org/1999/xlink">
    <!-- Generator: Sketch 40.2 (33826) - http://www.bohemiancoding.com/sketch -->
    <title>Artboard 3</title>
    <desc>Created with Sketch.</desc>
    <defs>
        <linearGradient x1="50%" y1="0%" x2="50%" y2="100%" id="linearGradient-1">
            <stop stop-color="#FFFFFF" stop-opacity="0.5" offset="0%"></stop>
            <stop stop-color="#000000" stop-opacity="0.5" offset="100%"></stop>
        </linearGradient>
        <rect id="path-2" x="86.9993489" y="6" width="180" height="55" rx="16"></rect>
        <mask id="mask-3" maskContentUnits="userSpaceOnUse" maskUnits="objectBoundingBox" x="0" y="0" width="180" height="55" fill="white">
            <use xlink:href="#path-2"></use>
        </mask>
        <rect id="path-4" x="271.999349" y="9" width="23" height="44" rx="9"></rect>
        <mask id="mask-5" maskContentUnits="userSpaceOnUse" maskUnits="objectBoundingBox" x="0" y="0" width="23" height="44" fill="white">
            <use xlink:href="#path-4"></use>
        </mask>
    </defs>
    <g id="logo-design" stroke="none" stroke-width="1" fill="none" fill-rule="evenodd">
        <g id="Artboard-3">
            <polygon id="Triangle-3" stroke="#3B6A73" stroke-width="4" fill="#3B6A73" transform="translate(191.890268, 84.000000) scale(-1, 1) rotate(180.000000) translate(-191.890268, -84.000000) " points="250.781187 108 135.305296 108 132.999349 60"></polygon>
            <path d="M219.999349,69.8569277 C219.999349,75.6576636 228.096503,92.0854031 228.096503,92.0854031 C228.096503,92.0854031 238.443623,110.248439 244.290811,118.35542 C250.589354,127.088193 254.686825,132.576058 254.686825,132.576058 C261.243085,141.462827 261.805216,141.075763 255.948676,131.721584 L236.193657,100.168485 C236.193657,100.168485 224.047926,79.9607801 222.023637,69.8569277 C219.999349,59.7530752 219.999349,68.3004302 219.999349,69.8569277 Z" id="Line" stroke="#3B6A73" stroke-width="12" stroke-linecap="square" fill="url(#linearGradient-1)"></path>
            <circle id="Oval-3-Copy" stroke="#3B6A73" stroke-width="4" fill="#3B6A73" cx="97.4993489" cy="52.5" r="44.5"></circle>
            <rect id="Rectangle-2" fill="#3B6A73" x="94.9993489" y="138" width="96" height="44" rx="12"></rect>
            <rect id="Rectangle-2-Copy" fill="#3B6A73" x="95.9993489" y="33" width="96" height="94" rx="12"></rect>
            <path d="M225.920688,323.886986 C215.48113,319.790713 199.000461,315.328489 190.426189,313.646303 C181.959824,311.985287 163.283336,309.55003 152.843778,307.501893 C142.404219,305.453757 129.876748,299.309347 123.613013,295.213073 C117.349278,291.1168 109.720215,285.681209 104.821808,280.876117 C94.382249,270.635434 92.2943373,268.587297 88.1185138,258.346614 C86.786992,255.081224 96.975797,241.855539 100.645984,235.817111 C101.937327,233.692511 103.342002,231.560647 104.838859,229.424133 C112.42971,218.589454 122.391179,207.635206 131.96466,196.902515 C134.625086,193.91995 146.580042,194.854378 150.755866,196.902515 C154.931689,198.950651 237.303936,328.353544 225.920688,323.886986 Z" id="Triangle-2" stroke="#3B6A73" stroke-width="4" fill="#3B6A73"></path>
            <path d="M119.319955,602.074184 C147.24588,606.562242 165.448865,607.444701 192.951932,595.439541 C220.454999,583.434381 224.384009,552.628673 216.52599,523.583215 C208.66797,494.537757 182.789351,475.626992 177.235894,472.240367 C153.661836,457.86437 135.981293,452.625725 122.229759,441.728123 C118.88349,439.076323 100.828177,427.276076 90.7976825,416.790092 C80.9751585,406.521523 80.2363725,408.049742 66.4848389,391.620031 C52.7333053,375.19032 43.6495673,347.257284 41.6850625,349.310997 C39.7205577,351.364711 26.9779182,381.578079 24.0045193,390.385275 C12.2174905,425.298411 12.2174905,452.369365 12.2174905,459.894424 C12.2174905,477.28691 13.6132076,499.262896 19.3275942,514.815787 C23.690948,526.691561 27.4248943,537.960629 32.8018897,545.055551 C35.1795868,548.192912 38.3139141,553.31165 42.0822878,557.719445 C46.8358276,563.279571 52.748518,569.584534 55.335898,571.952921 C63.6757011,579.58685 69.6504393,582.704381 75.5797158,586.808487 C79.4297279,589.473374 95.9892735,596.751377 95.9892735,596.751377 C95.9892735,596.751377 109.526958,600.500323 119.319955,602.074184 Z" id="Oval-2" stroke="#9AAD2B" stroke-width="4" fill="#9AAD2B" transform="translate(116.159330, 477.170165) rotate(-1.000000) translate(-116.159330, -477.170165) "></path>
            <path d="M246.002121,556.641232 C260.17196,537.112329 277.999349,489.722455 277.999349,454.412541 C277.999349,440.046748 277.999349,438.650345 276.787501,427.917463 C275.397113,415.603321 272.411494,404.192127 266.000389,390.269049 C254.001428,364.210755 246.002121,358.197302 240.002641,352.18385 C234.003161,346.170397 224.69401,339.487748 218.004547,336.147977 C214.459803,334.378233 208.005414,328.13004 184.007493,324.121072 C178.790417,323.249534 172.008533,322.116588 160.009572,320.112104 C134.214019,315.802832 122.012865,310.089683 114.013558,304.07623 C106.799604,298.653165 98.0149439,292.049326 88.0158103,282.026905 C78.0166767,272.004484 80.2120384,270 78.0166767,270 C76.0411114,270 61.3808227,297.335742 58.0184095,304.07623 C54.6559962,310.816718 45.5146215,334.629967 46.0194491,336.147977 C48.0192759,342.161429 60.0182362,360.201786 68.0175431,370.224207 C79.6189973,384.759798 103.301369,411.909965 118.013211,420.336311 C132.011998,428.354247 126.012518,424.345279 146.010785,434.3677 C166.009052,444.39012 204.25744,464.187244 214.004894,480.470835 C220.004374,490.493256 226.003854,494.502224 234.003161,520.560518 C242.002468,546.618812 230.003508,578.690558 246.002121,556.641232 Z" id="Oval-2-Copy-2" stroke="#9AAD2B" stroke-width="4" fill="#9AAD2B"></path>
            <use id="Rectangle-6" stroke="#3B6A73" mask="url(#mask-3)" stroke-width="8" fill="#3B6A73" xlink:href="#path-2"></use>
            <use id="Rectangle-6-Copy" stroke="#3B6A73" mask="url(#mask-5)" stroke-width="8" fill="#3B6A73" xlink:href="#path-4"></use>
        </g>
    </g>
</svg>