<?xml version="1.0" encoding="UTF-8" standalone="no"?>
<svg width="93px" height="102px" viewBox="0 0 93 102" version="1.1" xmlns="http://www.w3.org/2000/svg" xmlns:xlink="http://www.w3.org/1999/xlink">
    <!-- Generator: Sketch 40.3 (33839) - http://www.bohemiancoding.com/sketch -->
    <title>Group</title>
    <desc>Created with Sketch.</desc>
    <defs></defs>
    <g id="Page-1" stroke="none" stroke-width="1" fill="none" fill-rule="evenodd" opacity="0.967000933">
        <g id="Group" fill="#9AAD2B">
            <g id="moving">
                <g id="style-guide">
                    <g id="Mockup---with-revised-logo">
                        <g id="moving">
                            <path d="M73.1513649,90.4451969 C74.6020613,90.6243735 75.8403343,91.1255484 77.6018942,90.8373079 L77.7314206,91.8863995 L82.3114763,91.9513185 L82.4591365,89.9414252 C82.8321727,89.7778293 83.5342061,88.6508349 83.0109192,87.3186963 C83.122312,83.4443284 82.5109471,70.7176011 82.637883,63.8206031 C79.1872981,69.6113808 77.410195,75.778689 75.687493,81.2189039 C75.1693872,82.8522668 74.4673538,84.3168402 74.003649,85.983961 L73.1513649,90.4451969 L73.1513649,90.4451969 L73.1513649,90.4451969 Z" id="path3246"></path>
                            <g id="layer3" transform="translate(0.129526, 24.575749)">
                                <path d="M26.5606964,0.244095564 C26.2057939,0.270063178 25.9467409,0.506368458 25.7913092,0.981575781 L0.445571031,47.7232796 C0.243509749,48.4347922 -0.227966574,48.9645315 0.259052925,50.1330741 L3.77181058,65.1631287 C4.1448468,65.5344655 4.36504178,65.8538672 5.44011142,66.4615093 L40.2257382,77.399068 L41.7075209,76.474621 L68.5350418,28.8084701 C68.1775487,28.6500677 68.110195,27.6269437 67.9858496,26.7622222 L58.545961,17.310011 L28.3818384,1.1685426 C27.6279944,0.52973931 27.0166295,0.210337667 26.5606964,0.244095564 L26.5606964,0.244095564 L26.5606964,0.244095564 Z M30.0501393,2.74217996 L57.7118106,18.0474912 L59.7531476,19.7198055 L60.4888579,20.8312193 L61.3230084,20.3689958 L67.2397772,26.949189 L67.7008914,27.6970563 L65.0222841,26.8608991 L64.9342061,27.5100895 L67.1516992,28.4345365 L66.778663,29.4576605 L41.2464067,74.52705 C40.7516156,75.202208 40.2568245,75.2333691 39.764624,75.1762403 L5.71470752,64.887872 L6.27426184,63.7660711 L34.1224513,14.2510261 L35.3192758,14.0640593 L59.4681894,25.2872618 L59.9293036,24.2641378 L34.9566017,12.4800349 L34.4954875,11.467298 L29.402507,3.21479052 L30.0501393,2.74217996 L30.0501393,2.74217996 L30.0501393,2.74217996 Z M26.8119777,2.98627552 C27.1383844,2.98627552 27.547688,3.3030804 27.547688,3.3030804 L32.8271866,11.6542648 C33.034429,12.1969879 33.1095543,12.8098236 32.8271866,13.6018358 L5.62662953,61.8185001 C4.79247911,63.2155577 4.61373259,61.9691122 4.23292479,61.5432434 L1.74083565,48.9333704 L2.11387187,47.0740893 C2.29779944,47.0740893 26.260195,3.48745046 26.5373816,3.11611359 C26.6073259,3.02263018 26.7031755,2.98627552 26.8119777,2.98627552 L26.8119777,2.98627552 L26.8119777,2.98627552 Z" id="path3249"></path>
                            </g>
                            <path d="M67.7423398,8.26289453 C67.9677159,7.82923539 67.5454596,6.33609763 67.1879666,5.43502145 C66.9289136,4.18597925 67.312312,3.96525454 67.6490808,3.67441727 L74.1254039,0.519352265 C76.2237326,-0.189563577 77.1615042,0.477804084 77.9205292,1.35550941 C78.7287744,2.19686008 79.6250975,3.12650063 80.3245404,3.85878733 C80.6198607,4.83257282 81.3659331,5.41424736 80.8789136,7.05799728 L81.8969916,11.3712178 L77.6407521,15.8220667 C76.9568524,16.46087 76.2574095,17.1334312 78.6588301,15.9155502 L81.8969916,12.9941937 C81.8969916,12.9941937 82.1845404,13.9939468 82.4539554,14.339316 C83.4513092,15.6247129 86.6635655,17.5852677 86.6635655,17.5852677 C87.2801114,18.3668928 87.6220613,19.1511148 88.2411978,19.9353367 C88.5391086,20.2495448 88.6867688,20.9610574 89.0675766,21.3869263 C89.7514763,23.5266576 90.9612535,25.4300836 91.1659053,27.5776053 C91.4638162,30.7067027 93.0284958,34.4356519 92.7228134,37.894538 L92.3523677,42.0675335 C92.290195,42.758272 91.5596657,43.1971246 90.8731755,43.6437676 L82.4539554,45.7783054 C81.2959889,46.2093678 80.8763231,46.8897192 82.544624,46.4742374 L90.9172145,44.433183 C91.3964624,45.4303394 91.365376,47.8479242 90.7332869,49.1411113 C89.2566852,53.7581529 86.0729248,56.6639289 83.4694429,60.1539761 C83.0523677,60.9771494 82.8036769,61.8574515 82.0446518,62.5663673 L77.4671866,72.9092677 C74.8585237,78.5546268 73.778273,83.5222312 72.182507,88.7183506 L71.3975766,89.8297645 L71.3509471,91.4527403 C71.1281616,91.5851751 70.905376,91.9824796 70.6825905,91.946125 L65.7061838,91.1281452 C64.1881337,91.3618537 62.574234,92.81604 61.0561838,93.1743931 C58.678078,93.0731194 56.2792479,93.0315712 54.1420613,92.3330424 C52.2665181,91.2527897 52.432312,90.0323119 53.6783565,89.7362811 L58.7687465,88.5313838 C59.8878552,88.3703846 60.4163231,86.4461845 61.5354318,86.1086055 C62.6156825,86.3578946 63.6777994,86.9889076 64.5741226,86.9759238 C66.9289136,86.9395691 65.2010306,85.9086549 65.457493,86.4357974 C68.2371309,87.310906 62.5664624,85.8878808 60.895571,85.3789156 C60.895571,85.3789156 60.8230362,85.004982 61.2297493,84.6492257 C61.996546,83.9766645 63.5171866,83.013266 63.8099164,82.2264473 C67.3433983,72.6781559 74.6901393,52.1118063 75.2833705,52.8726573 C75.2963231,51.2912297 75.0191365,52.1559512 74.6823677,52.4545788 L72.5529526,57.0923945 L72.9233983,45.7783054 L74.8662953,45.8717888 C73.7756825,45.4537102 72.6462117,45.0745831 72.231727,43.976153 C77.2521727,38.5411316 79.4929805,35.315954 82.5964345,30.7716217 C84.9330919,28.1982312 82.990195,29.4654507 82.9150696,29.4550637 C79.2416992,34.500571 75.8299721,39.722658 71.164429,44.1085879 L68.0195265,48.3750667 L66.7242618,49.3021105 L65.4289972,52.919399 C63.7943733,52.9869148 62.1597493,53.1063658 60.5251253,52.4545788 C60.5199443,51.9430168 59.9267131,51.5015673 60.802312,50.8783446 L61.6364624,49.2086271 C61.5950139,48.9099995 61.9317827,48.4295987 61.4706685,48.263406 C60.5562117,47.936214 59.3231198,47.4116683 58.4915599,46.7988326 C57.4216713,46.2664965 57.1962953,45.8458212 58.9526741,45.684822 L61.5432033,45.9626754 L64.874624,45.2225985 L64.5041783,44.2020713 L64.874624,43.3659141 L71.6281337,33.7215426 C71.6281337,33.7215426 71.9053203,28.4345365 71.8120613,28.0631996 C71.7213928,27.6944595 70.8872423,31.7739716 70.8872423,31.7739716 L66.5403343,34.5551029 C64.6207521,36.4507387 62.9783565,38.7566628 61.0613649,40.1485268 C61.0613649,40.1485268 60.7479109,40.5873795 60.3411978,40.6782661 C59.9344847,40.766556 58.4915599,40.3069293 58.4915599,40.3069293 L56.4554039,41.5118265 L48.7770752,36.4117873 C50.3339833,35.827516 51.1836769,36.6403023 52.476351,36.9674942 L55.3440669,36.1339338 C55.755961,34.8874884 56.8932033,34.4927807 58.0278552,34.0928794 C60.7479109,30.9274274 61.3437326,31.0338946 63.2089136,29.4550637 L68.5738997,24.9107314 C69.1904457,24.022639 69.9442897,22.2360672 71.6747632,21.0155894 L72.8301393,20.6442525 L72.8301393,19.3458719 L71.9985794,19.4393553 C71.4001671,19.6782573 71.5478273,17.7073155 71.164429,17.7696377 C71.1359331,17.7748313 70.9157382,17.19056 70.6281894,16.6815947 C70.4028134,16.286887 70.1359889,15.9363242 69.8847075,15.9467113 C68.9650696,15.983066 68.2682173,15.8584214 68.3433426,15.2196181 L68.5738997,13.0409354 L68.9443454,12.4826317 C68.9443454,12.4826317 68.4469638,12.0671499 68.3899721,11.7892964 C68.3329805,11.5088462 68.6671588,10.8155109 68.6671588,10.8155109 C68.6671588,10.8155109 68.1697772,10.1169821 68.5376323,9.95857968 C74.801532,7.24756086 68.3433426,9.49116264 68.159415,9.47038855 C67.6853482,9.41585656 64.125961,10.379255 64.2269916,9.97935377 C64.0586072,9.40806628 66.5688301,8.83677879 67.7423398,8.26289453 L67.7423398,8.26289453 L67.7423398,8.26289453 Z" id="path2474"></path>
                        </g>
                    </g>
                </g>
            </g>
        </g>
    </g>
</svg>