<?xml version="1.0" encoding="UTF-8" standalone="no"?>
<svg width="95px" height="96px" viewBox="0 0 95 96" version="1.1" xmlns="http://www.w3.org/2000/svg" xmlns:xlink="http://www.w3.org/1999/xlink">
    <!-- Generator: Sketch 40.3 (33839) - http://www.bohemiancoding.com/sketch -->
    <title>Group</title>
    <desc>Created with Sketch.</desc>
    <defs></defs>
    <g id="Page-1" stroke="none" stroke-width="1" fill="none" fill-rule="evenodd">
        <g id="Group" fill="#9AAD2B">
            <g id="Group-2">
                <g id="Group-4">
                    <path d="M24.6738483,2.62149721 C25.6750843,10.0092067 27.4155056,30.9350615 17.6822753,25.1048045 C13.4873315,22.5916425 15.9157022,6.53389944 17.2152809,1.68455866 C19.5086236,0.226324022 23.3486517,0.581899441 24.6738483,2.62149721 L24.6738483,2.62149721 L24.6738483,2.62149721 Z" id="Shape"></path>
                    <path d="M78.2778652,2.15275978 C79.5182022,7.94547486 82.3452528,31.2986816 71.7522191,25.1042682 C67.4051685,22.5626816 67.5658146,-7.61403352 78.2778652,2.15275978 L78.2778652,2.15275978 L78.2778652,2.15275978 Z" id="Shape"></path>
                    <path d="M27.0045506,10.5841341 C40.5319101,10.5937877 56.512191,10.5712626 68.4891292,10.5841341 C67.5327247,17.9868603 64.2925843,28.4530056 74.0829213,28.8520223 C77.7201404,29.0000447 81.3167978,26.5448045 82.006882,23.2314637 C82.8640169,19.1131173 79.363427,15.5707709 80.1421067,10.5846704 C95.9697472,7.72612291 94.5922472,17.6934972 94.5922472,31.1941006 L94.5922472,71.4765587 C94.5922472,80.281743 96.4276685,92.3053408 89.9308427,94.8968045 C85.4162079,96.6966704 76.0896629,95.3655419 68.4891292,95.3655419 L25.6057022,95.3655419 C15.6915449,95.3655419 3.60359551,97.5263464 0.900898876,90.6813855 C-0.759466292,86.4772291 0.434438202,77.4693184 0.434438202,71.0083575 L0.434438202,30.7258994 C0.434438202,17.5524469 -0.817106742,7.93367598 14.8845787,10.5846704 C13.6186236,18.0855419 10.4339888,28.7672849 20.4778371,28.8525587 C30.8963483,28.9399777 26.9042135,17.3186145 27.0045506,10.5841341 L27.0045506,10.5841341 L27.0045506,10.5841341 Z M6.02876404,36.8146592 L6.02876404,63.0451844 C6.02876404,68.9751955 4.16985955,83.1923128 8.35893258,87.4023687 C13.5006742,92.5686704 36.5819382,89.7439106 47.5133427,89.7439106 C56.5479494,89.7439106 81.6199438,92.4742793 86.6682865,87.4023687 C91.0388202,83.0099665 88.9984551,68.770324 88.9984551,62.5769832 L88.9984551,35.4100559 L6.49469101,35.4100559 C5.95191011,35.4878212 5.98873596,36.1496313 6.02876404,36.8146592 L6.02876404,36.8146592 L6.02876404,36.8146592 Z" id="Shape"></path>
                    <polygon id="Fill-10" points="36.1114559 63.4540648 29.5552625 57.1013182 28.0567365 65.8788638 28.1545901 56.9873942 20.5550039 62.1884828 27.2488751 55.9669377 18 54.5447778 27.3689165 54.6371048 21.8879752 47.424799 28.4441686 53.7775456 29.9426946 45 29.8454099 53.8914696 37.4449961 48.690381 30.750556 54.912466 40 56.3346261 30.6310835 56.2417591"></polygon>
                    <text id="st" font-family="Lora-Regular, Lora" font-size="18" font-weight="normal">
                        <tspan x="55" y="55">st</tspan>
                    </text>
                    <text id="1" font-family="Lora-Regular, Lora" font-size="48" font-weight="normal">
                        <tspan x="40" y="79">1</tspan>
                    </text>
                </g>
            </g>
        </g>
    </g>
</svg>