<?xml version="1.0" encoding="UTF-8" standalone="no"?>
<svg width="95px" height="96px" viewBox="0 0 95 96" version="1.1" xmlns="http://www.w3.org/2000/svg" xmlns:xlink="http://www.w3.org/1999/xlink">
    <!-- Generator: Sketch 40 (33762) - http://www.bohemiancoding.com/sketch -->
    <title>offer</title>
    <desc>Created with Sketch.</desc>
    <defs>
        <polygon id="path-1" points="43.8233803 50.1904762 23.1267606 50.1904762 23.1267606 69.8320762 43.8233803 69.8320762 43.8233803 50.1904762"></polygon>
        <polygon id="path-3" points="37.8233803 12.1904762 17.1267606 12.1904762 17.1267606 31.8320762 37.8233803 31.8320762 37.8233803 12.1904762"></polygon>
    </defs>
    <g id="Symbols" stroke="none" stroke-width="1" fill="none" fill-rule="evenodd">
        <g id="1st-time-cleaning" transform="translate(-114.000000, -182.000000)">
            <g id="offer" transform="translate(114.000000, 182.000000)">
                <g id="Group-4">
                    <path d="M24.6738483,2.62149721 C25.6750843,10.0092067 27.4155056,30.9350615 17.6822753,25.1048045 C13.4873315,22.5916425 15.9157022,6.53389944 17.2152809,1.68455866 C19.5086236,0.226324022 23.3486517,0.581899441 24.6738483,2.62149721 L24.6738483,2.62149721 Z" id="Shape" fill="#9B9B9B"></path>
                    <path d="M78.2778652,2.15275978 C79.5182022,7.94547486 82.3452528,31.2986816 71.7522191,25.1042682 C67.4051685,22.5626816 67.5658146,-7.61403352 78.2778652,2.15275978 L78.2778652,2.15275978 Z" id="Shape" fill="#9B9B9B"></path>
                    <path d="M27.0045506,10.5841341 C40.5319101,10.5937877 56.512191,10.5712626 68.4891292,10.5841341 C67.5327247,17.9868603 64.2925843,28.4530056 74.0829213,28.8520223 C77.7201404,29.0000447 81.3167978,26.5448045 82.006882,23.2314637 C82.8640169,19.1131173 79.363427,15.5707709 80.1421067,10.5846704 C95.9697472,7.72612291 94.5922472,17.6934972 94.5922472,31.1941006 L94.5922472,71.4765587 C94.5922472,80.281743 96.4276685,92.3053408 89.9308427,94.8968045 C85.4162079,96.6966704 76.0896629,95.3655419 68.4891292,95.3655419 L25.6057022,95.3655419 C15.6915449,95.3655419 3.60359551,97.5263464 0.900898876,90.6813855 C-0.759466292,86.4772291 0.434438202,77.4693184 0.434438202,71.0083575 L0.434438202,30.7258994 C0.434438202,17.5524469 -0.817106742,7.93367598 14.8845787,10.5846704 C13.6186236,18.0855419 10.4339888,28.7672849 20.4778371,28.8525587 C30.8963483,28.9399777 26.9042135,17.3186145 27.0045506,10.5841341 L27.0045506,10.5841341 Z M6.02876404,36.8146592 L6.02876404,63.0451844 C6.02876404,68.9751955 4.16985955,83.1923128 8.35893258,87.4023687 C13.5006742,92.5686704 36.5819382,89.7439106 47.5133427,89.7439106 C56.5479494,89.7439106 81.6199438,92.4742793 86.6682865,87.4023687 C91.0388202,83.0099665 88.9984551,68.770324 88.9984551,62.5769832 L88.9984551,35.4100559 L6.49469101,35.4100559 C5.95191011,35.4878212 5.98873596,36.1496313 6.02876404,36.8146592 L6.02876404,36.8146592 Z" id="Shape" fill="#9B9B9B"></path>
                    <mask id="mask-2" fill="white">
                        <use xlink:href="#path-1"></use>
                    </mask>
                    <g id="Clip-11"></g>
                    <polygon id="Fill-10" fill="#3B6A73" points="30.9118034 61.345219 22.6179249 53.3087098 20.7222223 64.4126984 20.8460116 53.1645909 11.2321944 59.744201 19.7002415 51.8736677 8 50.0745716 19.8520992 50.1913694 12.9184628 41.0674794 21.2123413 49.1039886 23.1080439 38 22.9849743 49.2481075 32.5987915 42.6684974 24.1300247 50.5397137 35.8309859 52.3388099 23.9788867 52.221329"></polygon>
                    <g id="Group-3" transform="translate(58.000000, 61.000000)">
                        <g id="Group-2">
                            <g id="Group-12">
                                <mask id="mask-4" fill="white">
                                    <use xlink:href="#path-3"></use>
                                </mask>
                                <g id="Clip-11"></g>
                                <polygon id="Fill-10" fill="#9AAD2B" points="22.9118034 23.345219 14.6179249 15.3087098 12.7222223 26.4126984 12.8460116 15.1645909 3.23219441 21.744201 11.7002415 13.8736677 0 12.0745716 11.8520992 12.1913694 4.91846283 3.0674794 13.2123413 11.1039886 15.1080439 0 14.9849743 11.2481075 24.5987915 4.66849738 16.1300247 12.5397137 27.8309859 14.3388099 15.9788867 14.221329"></polygon>
                            </g>
                        </g>
                    </g>
                    <text id="st" font-family="Lora-Regular, Lora" font-size="18" font-weight="normal" fill="#9B9B9B">
                        <tspan x="51" y="55">st</tspan>
                    </text>
                    <text id="1" font-family="Lora-Regular, Lora" font-size="48" font-weight="normal" fill="#9B9B9B">
                        <tspan x="36" y="77">1</tspan>
                    </text>
                </g>
            </g>
        </g>
    </g>
</svg>