<?xml version="1.0" encoding="UTF-8"?>
<svg width="95px" height="96px" viewBox="0 0 95 96" version="1.1" xmlns="http://www.w3.org/2000/svg" xmlns:xlink="http://www.w3.org/1999/xlink">
    <!-- Generator: Sketch 42 (36781) - http://www.bohemiancoding.com/sketch -->
    <title>Group</title>
    <desc>Created with Sketch.</desc>
    <defs></defs>
    <g id="Page-1" stroke="none" stroke-width="1" fill="none" fill-rule="evenodd">
        <g id="Group" fill="#9AAD2B">
            <g id="Group-2">
                <g id="Group-4">
                    <path d="M24.6738483,2.62149721 C25.6750843,10.0092067 27.4155056,30.9350615 17.6822753,25.1048045 C13.4873315,22.5916425 15.9157022,6.53389944 17.2152809,1.68455866 C19.5086236,0.226324022 23.3486517,0.581899441 24.6738483,2.62149721 L24.6738483,2.62149721 L24.6738483,2.62149721 Z" id="Shape" fill-rule="nonzero"></path>
                    <path d="M78.2778652,2.15275978 C79.5182022,7.94547486 82.3452528,31.2986816 71.7522191,25.1042682 C67.4051685,22.5626816 67.5658146,-7.61403352 78.2778652,2.15275978 L78.2778652,2.15275978 L78.2778652,2.15275978 Z" id="Shape" fill-rule="nonzero"></path>
                    <path d="M27.0045506,10.5841341 C40.5319101,10.5937877 56.512191,10.5712626 68.4891292,10.5841341 C67.5327247,17.9868603 64.2925843,28.4530056 74.0829213,28.8520223 C77.7201404,29.0000447 81.3167978,26.5448045 82.006882,23.2314637 C82.8640169,19.1131173 79.363427,15.5707709 80.1421067,10.5846704 C95.9697472,7.72612291 94.5922472,17.6934972 94.5922472,31.1941006 L94.5922472,71.4765587 C94.5922472,80.281743 96.4276685,92.3053408 89.9308427,94.8968045 C85.4162079,96.6966704 76.0896629,95.3655419 68.4891292,95.3655419 L25.6057022,95.3655419 C15.6915449,95.3655419 3.60359551,97.5263464 0.900898876,90.6813855 C-0.759466292,86.4772291 0.434438202,77.4693184 0.434438202,71.0083575 L0.434438202,30.7258994 C0.434438202,17.5524469 -0.817106742,7.93367598 14.8845787,10.5846704 C13.6186236,18.0855419 10.4339888,28.7672849 20.4778371,28.8525587 C30.8963483,28.9399777 26.9042135,17.3186145 27.0045506,10.5841341 L27.0045506,10.5841341 L27.0045506,10.5841341 Z M6.02876404,36.8146592 L6.02876404,63.0451844 C6.02876404,68.9751955 4.16985955,83.1923128 8.35893258,87.4023687 C13.5006742,92.5686704 36.5819382,89.7439106 47.5133427,89.7439106 C56.5479494,89.7439106 81.6199438,92.4742793 86.6682865,87.4023687 C91.0388202,83.0099665 88.9984551,68.770324 88.9984551,62.5769832 L88.9984551,35.4100559 L6.49469101,35.4100559 C5.95191011,35.4878212 5.98873596,36.1496313 6.02876404,36.8146592 L6.02876404,36.8146592 L6.02876404,36.8146592 Z" id="Shape" fill-rule="nonzero"></path>
                    <polygon id="Fill-10" fill-rule="nonzero" points="36.1114559 63.4540648 29.5552625 57.1013182 28.0567365 65.8788638 28.1545901 56.9873942 20.5550039 62.1884828 27.2488751 55.9669377 18 54.5447778 27.3689165 54.6371048 21.8879752 47.424799 28.4441686 53.7775456 29.9426946 45 29.8454099 53.8914696 37.4449961 48.690381 30.750556 54.912466 40 56.3346261 30.6310835 56.2417591"></polygon>
                    <path d="M59.1660156,54.5869141 C59.3945324,54.5869141 59.6245106,54.5590823 59.855957,54.503418 C60.0874035,54.4477536 60.2983389,54.3613287 60.4887695,54.2441406 C60.6792002,54.1269525 60.8344721,53.9790048 60.9545898,53.800293 C61.0747076,53.6215811 61.1347656,53.4091809 61.1347656,53.1630859 C61.1347656,52.8759751 61.0600593,52.6313487 60.9106445,52.4291992 C60.7612297,52.2270498 60.5649426,52.0483406 60.3217773,51.8930664 C60.0786121,51.7377922 59.8002945,51.5986334 59.4868164,51.4755859 C59.1733383,51.3525384 58.8540055,51.2265631 58.5288086,51.0976562 C58.2036117,50.9687494 57.8857437,50.8266609 57.5751953,50.6713867 C57.2646469,50.5161125 56.9877942,50.3330089 56.7446289,50.1220703 C56.5014636,49.9111318 56.3051765,49.6591812 56.1557617,49.3662109 C56.0063469,49.0732407 55.9316406,48.7246114 55.9316406,48.3203125 C55.9316406,48.0683581 55.9785152,47.7915054 56.0722656,47.4897461 C56.1660161,47.1879868 56.330077,46.9052748 56.5644531,46.6416016 C56.7988293,46.3779284 57.1137676,46.1567392 57.5092773,45.9780273 C57.9047871,45.7993155 58.4042939,45.7099609 59.0078125,45.7099609 C59.1718758,45.7099609 59.3461905,45.7216796 59.5307617,45.7451172 C59.715333,45.7685548 59.9042959,45.8110348 60.0976562,45.8725586 C60.2910166,45.9340823 60.484374,46.0146479 60.6777344,46.1142578 C60.8710947,46.2138677 61.0615225,46.3369133 61.2490234,46.4833984 L61.2050781,45.7978516 L61.9609375,45.7978516 L61.9609375,48.953125 L61.3984375,48.953125 C61.3749999,48.6425766 61.3149419,48.3349625 61.2182617,48.0302734 C61.1215815,47.7255844 60.980958,47.4516614 60.7963867,47.2084961 C60.6118155,46.9653308 60.3789077,46.7675789 60.0976562,46.6152344 C59.8164048,46.4628899 59.4824238,46.3867188 59.0957031,46.3867188 C58.8144517,46.3867188 58.5654308,46.4233395 58.3486328,46.496582 C58.1318349,46.5698246 57.9487312,46.669433 57.7993164,46.7954102 C57.6499016,46.9213873 57.5371098,47.0664054 57.4609375,47.2304688 C57.3847652,47.3945321 57.3466797,47.5673819 57.3466797,47.7490234 C57.3466797,48.0419937 57.421386,48.2939443 57.5708008,48.5048828 C57.7202156,48.7158214 57.9179675,48.9033195 58.1640625,49.0673828 C58.4101575,49.2314461 58.6914047,49.3793939 59.0078125,49.5112305 C59.3242203,49.6430671 59.6464827,49.7778313 59.9746094,49.9155273 C60.302736,50.0532233 60.6249984,50.1997063 60.9414062,50.3549805 C61.2578141,50.5102547 61.5390613,50.6933583 61.7851562,50.9042969 C62.0312512,51.1152354 62.2290032,51.3613267 62.378418,51.6425781 C62.5278328,51.9238295 62.6025391,52.2578106 62.6025391,52.6445312 C62.6025391,53.0957054 62.5117197,53.4882796 62.3300781,53.8222656 C62.1484366,54.1562517 61.9096694,54.4316395 61.6137695,54.6484375 C61.3178696,54.8652355 60.9838886,55.0263667 60.6118164,55.1318359 C60.2397442,55.2373052 59.8632832,55.2900391 59.4824219,55.2900391 C58.8730438,55.2900391 58.3369164,55.2094735 57.8740234,55.0483398 C57.4111305,54.8872062 57.0302749,54.7041026 56.7314453,54.4990234 L56.7929688,55.1230469 L56.0371094,55.1230469 L55.9316406,52.0292969 L56.4853516,52.0292969 C56.5087892,52.4042987 56.5952141,52.7485336 56.7446289,53.0620117 C56.8940437,53.3754898 57.0903308,53.6450184 57.3334961,53.8706055 C57.5766614,54.0961925 57.8549789,54.271972 58.168457,54.3979492 C58.4819352,54.5239264 58.8144514,54.5869141 59.1660156,54.5869141 Z M63.7099609,46 C64.0263688,45.9941406 64.3134753,45.9077157 64.5712891,45.7407227 C64.8291029,45.5737296 65.0561514,45.3657239 65.2524414,45.1166992 C65.4487315,44.8676745 65.6142571,44.5966812 65.7490234,44.3037109 C65.8837897,44.0107407 65.9892574,43.7353529 66.0654297,43.4775391 L66.6806641,43.4775391 C66.6806641,43.9580102 66.6791992,44.4062479 66.6762695,44.8222656 C66.6733398,45.2382833 66.671875,45.6308575 66.671875,46 L69.7041016,46 L69.7041016,46.703125 L66.671875,46.7382812 C66.6660156,47.517582 66.6630859,48.1826144 66.6630859,48.7333984 C66.6630859,49.2841824 66.6616211,49.7441388 66.6586914,50.1132812 C66.6557617,50.4824237 66.6542969,50.7739247 66.6542969,50.987793 C66.6542969,51.2016612 66.652832,51.3642573 66.6499023,51.4755859 C66.6469726,51.5869146 66.6455078,51.6586912 66.6455078,51.690918 L66.6455078,51.7480469 C66.6455078,52.1582052 66.6674802,52.520018 66.7114258,52.8334961 C66.7553713,53.1469742 66.8300776,53.4106435 66.9355469,53.6245117 C67.0410162,53.83838 67.1801749,53.9995112 67.3530273,54.1079102 C67.5258798,54.2163091 67.7441393,54.2705078 68.0078125,54.2705078 C68.3183609,54.2705078 68.625975,54.1767587 68.9306641,53.9892578 C69.2353531,53.8017569 69.5048816,53.535158 69.7392578,53.1894531 L70.2226562,53.5849609 C69.9589831,53.9834004 69.6967786,54.295409 69.4360352,54.5209961 C69.1752917,54.7465832 68.9277355,54.9165033 68.6933594,55.0307617 C68.4589832,55.1450201 68.2407237,55.2167967 68.0385742,55.2460938 C67.8364248,55.2753908 67.6591804,55.2900391 67.5068359,55.2900391 C67.3251944,55.2900391 67.1391611,55.2753908 66.9487305,55.2460938 C66.7582998,55.2167967 66.5708017,55.1596684 66.3862305,55.074707 C66.2016592,54.9897457 66.0288094,54.8696297 65.8676758,54.7143555 C65.7065422,54.5590813 65.5644537,54.3583997 65.4414062,54.1123047 C65.3183588,53.8662097 65.22168,53.5673846 65.1513672,53.2158203 C65.0810543,52.8642561 65.0488281,52.4482446 65.0546875,51.9677734 L65.0898438,46.7646484 L63.7099609,46.7734375 L63.7099609,46 Z" id="st"></path>
                    <path d="M51.90625,73.7734375 C51.90625,74.3984406 51.9023438,74.9921847 51.8945312,75.5546875 C51.8867187,76.1171903 51.8437504,76.6249977 51.765625,77.078125 L55.796875,76.890625 L55.796875,79 L43.5625,79 L43.5625,77.40625 C44.3906291,77.3749998 45.0742161,77.2265638 45.6132812,76.9609375 C46.1523464,76.6953112 46.5781234,76.3281273 46.890625,75.859375 C47.2031266,75.3906227 47.4218744,74.8281283 47.546875,74.171875 C47.6718756,73.5156217 47.734375,72.7734416 47.734375,71.9453125 L47.6875,49.28125 L47.59375,49.28125 L41.828125,53.0078125 L40.8671875,51.6015625 L50.2421875,44.6171875 L51.859375,44.6171875 L51.90625,73.7734375 Z" id="1"></path>
                </g>
            </g>
        </g>
    </g>
</svg>